<svg width="12" height="12" viewBox="0 0 12 12" fill="none" xmlns="http://www.w3.org/2000/svg">
<path d="M1.20001 10.65C1.35001 9.85004 1.6 8.05004 1.75 6.65004C1.95 5.15004 2.35002 4.00002 2.65002 4.00002C3.00002 4.00002 3.6 3.24999 4 2.34999C5 0.199994 7.1 -0.0999689 8.25 1.70003C8.7 2.40003 8.95 3.20002 8.75 3.50002C8.6 3.75002 8.80001 4.00002 9.20001 4.00002C10.25 4.00002 10.35 4.35004 10.75 8.40004L11.15 12H6H0.900024L1.20001 10.65ZM8 3.05001C8 2.55001 7.65001 1.85003 7.20001 1.45003C6.20001 0.650031 4.79998 1.40003 4.59998 2.95003C4.44998 3.85003 4.65001 4.00002 6.20001 4.00002C7.65001 4.00002 8 3.80001 8 3.05001Z" fill="#FF392B"/>
</svg>
