<svg width="44" height="20" viewBox="0 0 44 20" fill="none" xmlns="http://www.w3.org/2000/svg">
<path d="M0.0171371 18.7018C-0.132863 18.5018 0.717134 17.6518 1.96713 16.9018C3.71713 15.7518 4.61714 14.6018 6.51714 11.0518C11.0171 2.60183 13.9171 0.0518434 19.2171 0.00184342C24.0171 -0.0481566 26.1671 0.90184 31.0671 4.95184C35.8671 8.95184 37.8671 9.90184 40.5171 9.45184C42.8171 9.00184 42.9171 9.00183 43.1171 9.60183C43.3671 10.3018 39.2671 11.0018 37.3171 10.6018C36.4171 10.4018 34.5171 9.30184 33.0671 8.20184C31.6171 7.05184 29.3671 5.25184 28.0671 4.20184C25.2671 2.00184 22.8671 1.15184 19.5171 1.15184C14.9171 1.15184 11.8171 3.75184 8.21713 10.7518C5.86713 15.2018 4.16713 17.4018 2.16713 18.4018C0.517131 19.2518 0.367137 19.3018 0.0171371 18.7018Z" fill="#3326AE"/>
</svg>
