<svg width="45" height="9" viewBox="0 0 45 9" fill="none" xmlns="http://www.w3.org/2000/svg">
<path d="M1.9 8.19999C3.1 7.84999 5.55 6.45 7.4 5.1C13.7 0.450001 16.4 -0.400005 21.35 0.749995C23.2 1.2 25.9 2.2 27.25 3C36.05 8.1 37.65 8.3 42.85 5C43.75 4.4 44.1 4.39999 44.6 4.89999C45.15 5.44999 45.1 5.5 44.45 5.25C43.95 5.05 42.85 5.49999 41.75 6.19999C38 8.79999 35.35 8.4 29 4.5C20.85 -0.550005 14.85 -0.200008 7.34995 5.69999C5.69995 6.94999 3.59995 8.2 2.59995 8.5C-0.100049 9.25 -0.6 8.99999 1.9 8.19999Z" fill="#FFFFFF"/>
</svg>
