<svg width="45" height="18" viewBox="0 0 45 18" fill="none" xmlns="http://www.w3.org/2000/svg">
<path d="M13.25 17.25C10.15 15.85 8.3 13.55 4.95 7.05C3.35 3.95 2.39998 2.7 1.39998 2.3C-0.0500201 1.75 -0.500002 0.5 0.699998 0.5C2.2 0.5 4.64997 3.30001 6.54997 7.10001C9.09997 12.35 11 14.65 13.8 16C18.1 18 21.7 16.2 26.65 9.7C31.25 3.6 34.3 1.95 39.25 3C41.85 3.55 44.55 5.1 43.95 5.7C43.8 5.85 42.5 5.55 41.1 5C36 3.05 33.3 3.9 29.45 8.55C25.2 13.75 21.3 17.3 19.55 17.65C17 18.15 14.9 18.05 13.25 17.25Z" fill="#3326AE"/>
</svg>
