<svg width="27" height="18" viewBox="0 0 27 18" fill="none" xmlns="http://www.w3.org/2000/svg">
<g clip-path="url(#clip0_2_5)">
<path d="M-15.5 218.15C-15.5 -29.15 -15.75 -9.35 -12.4 -15.6C-9.59999 -20.9 -3.2 -25.65 2.9 -26.95C6.6 -27.7 196.55 -27.75 200.75 -26.95C209.8 -25.3 217.5 -17.3 219 -8C219.35 -5.8 219.5 10.95 219.4 43L219.25 90.75L214.5 90.7C211.9 90.7 209.2 90.65 208.5 90.55C207.8 90.5 198.65 90.55 188.1 90.7C170.3 91 168.85 91.05 167 92C165.95 92.55 164.5 93.75 163.8 94.65C162.6 96.2 162.5 96.75 162.5 101.4C162.5 105.6 162.35 106.5 161.75 106.5C161.2 106.5 161 107.1 161 109V111.5H159.25H157.5V109C157.5 107.1 157.7 106.5 158.25 106.5C158.65 106.5 159 106.05 159 105.5C159 104.95 158.65 104.5 158.25 104.5C157.85 104.5 157.5 104.85 157.5 105.25C157.5 105.65 157.3 106 157 106C156.7 106 156.5 107.4 156.5 109.25V112.5H154.5H152.5V109.5C152.5 106.65 152.45 106.5 151.25 106.5H150V144V181.5H151.25C152.45 181.5 152.5 181.4 152.5 177.75V174H154.2C156.15 174 156.5 174.55 156.5 177.75C156.5 180.95 157.35 182.5 159.1 182.5C160.3 182.5 160.5 182.7 160.5 184C160.5 184.85 160.75 185.5 161 185.5C161.3 185.5 161.5 185.95 161.5 186.5C161.5 187.05 161.7 187.5 161.9 187.5C162.15 187.5 162.65 188.1 163.05 188.9C164 190.75 164.8 191.5 165.7 191.5C166.15 191.5 166.5 191.65 166.5 191.9C166.5 192.3 168.95 193.5 169.85 193.5C170.2 193.5 170.5 193.75 170.5 194C170.5 194.3 171.25 194.5 172.2 194.5C173.15 194.5 174.1 194.7 174.25 195C174.45 195.3 181.5 195.5 193.75 195.5C206 195.5 213.05 195.3 213.25 195C213.4 194.75 214.9 194.5 216.55 194.5H219.5V318.5V442.5H217.75C216.25 442.5 216 442.3 215.55 440.75C214.85 438.2 211.75 433.35 209.55 431.35C207 429.05 203.8 427.2 200.2 426C197.3 425.05 195.65 425 122.45 425H47.65L47.4 430.95C47.1 437.7 46.45 439.5 43.5 441.25C41.9 442.15 40.75 442.25 30.25 442.4C16.65 442.55 14.65 442.2 12.35 439.4C10.9 437.6 10.85 437.3 10.6 431.25L10.35 425H8.75001C6.3 425 1.1 426.75 -1.75 428.5C-3.1 429.35 -5.34999 431.25 -6.64999 432.65C-8.89999 435.1 -12 440.4 -12 441.85C-12 442.25 -12.6 442.5 -13.75 442.5H-15.5V218.15ZM26.1 428.15L26.25 426.25L28.85 426.1L31.45 425.95L31.6 427.75C31.85 430.65 32.75 430 33 426.65L33.25 423.5L31.1 421.45L28.9 419.35L26.65 421.6L24.4 423.9L24.75 426.95C25.15 430.35 25.85 431 26.1 428.15ZM10 419.5C10 418.05 9.8 417.5 9.25001 417.5C8.85001 417.5 8.50001 417.75 8.50001 418C8.50001 418.3 8.75001 418.5 9.00001 418.5C9.3 418.5 9.50001 419.2 9.50001 420C9.50001 420.85 9.60001 421.5 9.75001 421.5C9.90001 421.5 10 420.6 10 419.5ZM35.5 404.65C35.5 404.4 32.8 404.3 29.5 404.4C25.5 404.5 23.5 404.4 23.5 404.05C23.5 403.75 23.3 403.5 23 403.5C22.75 403.5 22.5 403.85 22.5 404.25C22.5 404.9 23.55 405 29 405C32.6 405 35.5 404.85 35.5 404.65ZM97.5 333.6V275.75L98.7 273.15C100.35 269.7 102.55 268.5 107.5 268.5C112.45 268.5 114.65 269.7 116.3 273.15L117.5 275.75V324.9C117.5 373.65 117.5 374 116.5 374C115.95 374 115.5 374.35 115.5 374.75C115.5 375.15 115.95 375.5 116.5 375.5C117.45 375.5 117.5 375.85 117.5 383.5V391.5H155.6H193.7L195.55 390.2C199.3 387.65 199.05 393.05 198.9 320.05L198.75 254.55L197.7 253.15C197.1 252.4 195.9 251.3 194.95 250.75C193.25 249.75 192.35 249.75 102 249.75C11.65 249.75 10.75 249.75 9.04999 250.75C8.09999 251.3 6.89999 252.4 6.29999 253.15L5.25001 254.55L5.10001 320.05C5.00001 392.45 4.75 387.5 8.15 390.05L9.75001 391.25L53.25 391.5C77.2 391.65 96.9 391.7 97.15 391.6C97.35 391.5 97.5 365.4 97.5 333.6ZM193.1 231.85C197.45 229.3 199.7 224.9 198.5 221.2C197.6 218.4 195.8 216.25 193.1 214.65L190.75 213.25L169.9 213.1C148.05 212.95 146.55 213.05 143.45 215.15C138.8 218.25 137.4 223.75 140.15 227.9C141.65 230.25 144.65 232.4 147.1 233C148 233.25 158.2 233.4 169.75 233.35L190.75 233.25L193.1 231.85ZM56.3 194.9C56.45 194.7 57.1 194.5 57.8 194.5C58.45 194.5 59.4 194.3 59.9 194.1C60.35 193.85 61.8 193.15 63.15 192.5C64.45 191.9 65.5 191.2 65.5 191C65.5 190.8 65.95 190.5 66.5 190.35C67.05 190.2 67.5 189.75 67.5 189.3C67.5 188.6 67.35 188.55 66.4 189.1C65.5 189.6 59.05 189.75 36.75 189.75C21.05 189.75 7.65 189.6 6.9 189.35C5.8 189.05 5.50001 189.15 5.50001 189.75C5.50001 190.15 5.85001 190.5 6.25001 190.5C6.70001 190.5 7.59999 191.05 8.29999 191.75C8.99999 192.45 10.15 193.1 10.9 193.3C11.65 193.45 12.65 193.75 13.1 194.05C13.6 194.3 14.45 194.5 14.95 194.5C15.5 194.5 16.1 194.75 16.25 195.05C16.65 195.7 55.9 195.55 56.3 194.9ZM134.5 195C134.5 194.75 135.35 194.5 136.4 194.5C137.45 194.5 138.5 194.3 138.75 194.1C139.05 193.85 140.2 193.4 141.3 193C143.05 192.5 146.5 189.7 146.5 188.85C146.5 188.7 145.65 188.9 144.65 189.3C143.15 189.8 136.9 189.95 115.35 190C92 190 87.7 189.9 86.15 189.25C85.15 188.85 84.25 188.55 84.15 188.65C83.85 189 86.05 191.5 86.65 191.5C87 191.5 87.8 191.95 88.5 192.5C89.2 193.05 90.25 193.5 90.85 193.5C91.45 193.5 92.1 193.75 92.25 194C92.4 194.3 93.2 194.5 94.05 194.5C94.85 194.5 95.5 194.75 95.5 195C95.5 195.3 102.35 195.5 115 195.5C127.65 195.5 134.5 195.3 134.5 195ZM80.5 178C80.5 173.85 80.45 173.5 79.5 173.5C78.7 173.5 78.5 173.15 78.5 171.75C78.5 170.35 78.7 170 79.5 170C80.5 170 80.5 169.65 80.5 137C80.5 107.35 80.4 104 79.7 104C78.1 104 77.5 105.35 77.5 108.95V112.5H75.5H73.5V109.25C73.5 106.1 73.45 106 72.25 106H71V144V182H72.25C73.45 182 73.5 181.9 73.5 178.45V174.95L75.4 175.1L77.25 175.25L77.4 178.15C77.55 181.25 78.2 182.45 79.65 182.5C80.4 182.5 80.5 181.95 80.5 178ZM1.85001 124.4C1.80001 114.4 1.75001 122.55 1.75001 142.5C1.75001 162.45 1.80001 170.6 1.85001 160.65C1.95001 150.65 1.95001 134.35 1.85001 124.4ZM55.95 176.8C58.25 175.6 58.5 174.3 58.5 163.25V153H55.8C52.6 153 50.2 152.1 48.2 150.15C43.3 145.3 37.65 142 34.35 142C31.85 142 27.9 144.1 25.75 146.6C24.65 147.85 22.85 150.55 21.8 152.55C19.3 157.3 16.3 161.35 14.95 161.75C13.95 162.1 13.95 162.35 14.1 168.25C14.25 174.75 14.7 176 17.25 177.05C17.8 177.25 26.4 177.45 36.4 177.45C51.2 177.5 54.8 177.35 55.95 176.8ZM134.7 176.95C137.3 175.75 137.5 174.35 137.5 158.85C137.5 148.05 137.35 144.5 136.9 144.15C136 143.45 131.85 142 130.85 142C128.35 142 124.95 144.85 120.65 150.55C116.9 155.45 113.55 157.5 109.2 157.5C103.95 157.5 101.25 154.95 96.7 145.95C93.45 139.5 93.5 139.35 93.5 158V174.6L94.95 176.05L96.4 177.5H114.95C127.7 177.5 133.85 177.3 134.7 176.95ZM96 116.95C96 115.75 95.8 115.05 95.5 115.25C95.25 115.4 95 115.85 95 116.2C95 116.6 94.65 117.2 94.2 117.55C93.5 118.15 93.5 118.25 94.35 118.55C95.9 119.2 96 119.05 96 116.95ZM105.5 116.15C105.45 114.8 105.45 114.8 104.75 115.7C103.8 116.95 103.8 117.5 104.75 117.5C105.25 117.5 105.5 117 105.5 116.15ZM119.9 116.4C119.8 115.65 119.4 115.25 118.75 115.25C118.1 115.25 117.7 115.65 117.6 116.4C117.45 117.3 117.65 117.5 118.75 117.5C119.85 117.5 120.05 117.3 119.9 116.4ZM140.5 72C140.5 71.7 141.7 71.5 143.15 71.5C145.15 71.5 146.15 71.25 147 70.5C147.65 69.95 148.65 69.5 149.25 69.5C150.35 69.5 153.5 66.5 153.5 65.5C153.5 65.2 152.55 65.6 151.4 66.35L149.3 67.75L122.15 67.9L95 68.05V66.4C95.05 65.1 95.4 64.55 96.6 63.75C99.85 61.7 100.25 60.6 100.4 53.35C100.5 49.55 100.35 46 100.05 44.95C99.75 43.95 98.55 42.25 97.25 41.05L95 38.95L76.5 39C57.05 39 56.55 39.05 54 41.35C53.3 42 52.6 42.5 52.4 42.5C52.15 42.5 52 42.95 52 43.5C52 44.05 51.65 44.65 51.25 44.8C50.85 45 50.5 45.55 50.5 46.1C50.5 46.7 50.05 47.5 49.55 47.95C48.8 48.65 48.55 49.6 48.45 52.75C48.3 57.6 48.95 62.5 49.85 63.4C50.2 63.75 50.5 64.55 50.5 65.15C50.5 66.45 53.65 69.5 55 69.5C55.5 69.5 56.25 69.85 56.7 70.25C57.15 70.7 58.35 71 59.95 71C61.5 71 62.7 71.25 63.1 71.7C63.65 72.35 69.35 72.45 102.15 72.45C126.8 72.45 140.5 72.3 140.5 72ZM129.5 54.25V52.5H132.25C134.95 52.5 135 52.5 135 51.05C135 48.35 134.05 47.95 127.8 48.1L122.25 48.25L122.1 52.15L121.95 56H125.75H129.5V54.25ZM184.8 11.2C186.35 9.95 188.9 9.6 189.85 10.55C190.25 10.95 190.5 10.95 190.7 10.55C191.25 9.7 193.85 9.9 195.35 10.85C196.05 11.3 196.9 12.4 197.3 13.25L197.9 14.75L198.55 13.25C198.9 12.45 199.2 10.05 199.2 8C199.25 3.7 198.3 1.5 195.5 -0.349998C194.15 -1.3 193.15 -1.5 189.9 -1.5C184.1 -1.5 181.2 0.199997 180.05 4.2C179.4 6.6 180.1 12.55 181.2 14.3L182.15 15.7L182.75 14.05C183.05 13.1 183.95 11.85 184.8 11.2ZM16.5 13.3C16.5 12.45 17.6 12 19.8 12H21.5L19.25 7.5C16.8 2.65 15.7 1.6 14.2 2.75C13.65 3.15 12.5 3.5 11.6 3.5C6.15001 3.55 3.35002 10.2 7.45002 13.35C8.65002 14.25 16.5 14.2 16.5 13.3ZM160 11.75C160 11.35 160.45 11 161 11C161.9 11 162 10.65 162 7.75C162 4.55 162 4.5 160.65 4.5C158.4 4.55 157.35 5.7 157 8.5C156.7 10.85 156.75 11 157.85 11C158.55 11 159 11.3 159 11.75C159 12.15 159.25 12.5 159.5 12.5C159.8 12.5 160 12.15 160 11.75Z" fill="white"/>
<path d="M8.25003 15.5C4.55003 14.85 3.15001 12.35 3.80001 7.65C3.95001 6.65 4.35003 6 4.75003 6C5.35003 6 5.50003 6.75 5.50003 9.25C5.50003 11.7 5.65004 12.5 6.20004 12.5C6.60004 12.5 7.00003 12.75 7.10003 13.05C7.20003 13.3 8.20002 13.7 9.40002 13.85C10.6 14 11.5 14.4 11.5 14.75C11.5 15.55 10.2 15.85 8.25003 15.5Z" fill="#F5F6FB"/>
<path d="M14.85 15.6C13.5 15.35 13.85 14 15.25 14C16.15 14 16.5 13.75 16.5 13C16.5 12.15 16.85 12 18.5 12C20.75 12 21.3 13.2 19.3 13.7C18.45 13.9 18.15 14.25 18.3 14.85C18.5 15.55 18.25 15.75 17.1 15.75C16.35 15.75 15.3 15.7 14.85 15.6Z" fill="#F5F6FB"/>
<path d="M22.2 13.1C21.9 12.9 20.6 10.75 19.35 8.25001C16.55 2.75001 15.95 2.00001 14.55 2.00001C13.25 2.00001 13.15 0.700007 14.45 0.350007C14.95 0.250007 16.05 0.400011 16.9 0.800011C18.15 1.30001 19 2.50001 21.35 7.10001C22.95 10.2 24.3 12.9 24.4 13.15C24.65 13.6 22.95 13.6 22.2 13.1Z" fill="#F5F6FB"/>
<path d="M5.00004 4.49998C5.70004 3.14998 8.10004 1.99998 10.15 1.99998C11.05 1.99998 12.05 1.74998 12.4 1.39998C12.85 0.949985 13 1.14998 13 2.39998C13 3.99998 12.95 3.99998 10.55 3.99998C8.85003 3.99998 8.00003 4.19998 7.80003 4.74998C7.65003 5.19998 6.90004 5.49998 6.00004 5.49998C4.60004 5.49998 4.50004 5.39998 5.00004 4.49998Z" fill="#F5F6FB"/>
<path d="M5.64999 14.25L4.25 13.05L5.85001 13C8.05001 13 9 13.45 9 14.55C9 15.9 7.34999 15.75 5.64999 14.25Z" fill="#EFEEF9"/>
<path d="M16.1 13.65C16.25 11.8 16.3 11.75 18.4 11.6C19.55 11.5 20.5 11.35 20.5 11.2C20.5 10.5 16.95 4.1 16.15 3.4C15.3 2.6 15.05 2.6 14.2 3.25C13.7 3.65 12.55 4 11.7 4C9.05 4 6.99999 4.6 6.99999 5.3C6.99999 5.7 6.79997 6 6.54997 6C6.24997 6 5.9 7 5.7 8.25C5.4 10.45 4.05 11.5 3.95 9.65C3.65 5.35 5.89999 2.35 9.49999 2.25C10.5 2.25 11.85 1.79999 12.5 1.34999C14.25 0.149994 16.6 0.249997 17.85 1.65C18.8 2.7 24 12.4 24 13.15C24 13.35 22.6 13.5 20.95 13.5C18.15 13.5 17.9 13.6 18.15 14.5C18.35 15.3 18.15 15.5 17.15 15.5C16.05 15.5 15.95 15.35 16.1 13.65Z" fill="#EFEEF9"/>
<path d="M-295 322.75C-295 210.4 -294.9 118.5 -294.8 118.5C-294.05 118.5 -285.15 116.8 -282.85 116.25C-281.3 115.85 -278.6 115.15 -276.85 114.7C-267.8 112.4 -249.35 105.5 -245.5 103C-244.8 102.55 -243.05 101.65 -240.25 100.45C-239.7 100.2 -238.9 99.8 -238.5 99.5C-238.1 99.25 -235.05 97.45 -231.75 95.45C-228.45 93.5 -225.65 91.7 -225.6 91.45C-225.5 91.2 -225.2 91 -224.95 91C-224.65 91 -223.6 90.35 -222.6 89.6C-221.6 88.8 -218.85 86.75 -216.5 85.05C-214.15 83.3 -210.8 80.65 -209 79.1C-203.45 74.25 -192.5 63.35 -192.5 62.65C-192.5 62.25 -192.15 61.85 -191.75 61.7C-191 61.4 -186.7 56.3 -184.2 52.7C-183.4 51.6 -181.8 49.4 -180.65 47.85C-179.45 46.3 -178.5 44.85 -178.5 44.55C-178.5 44.3 -178.35 44 -178.1 43.9C-177.55 43.65 -173.35 37.2 -170.85 32.75C-165.35 22.85 -159.2 8.85 -156.9 0.75C-156.35 -1.15 -155.55 -3.85 -155.15 -5.25C-153.6 -10.35 -151.3 -21.25 -150.25 -28.5C-148.6 -39.65 -148.4 -57.7 -149.8 -70.15L-150.15 -73H177.45H505V104V281L503 282.8C500.3 285.25 491.9 294.85 488.2 299.75C472.3 320.7 462.55 344.8 458.65 372.5C457.45 381.25 457.45 401.8 458.65 410.5C461.1 427.85 465.3 442.05 472.55 457.45C479.1 471.3 489.75 486.55 501.1 498.25L505 502.2V514.6V527H105H-295V322.75ZM72.5 506.5C72.5 505.6 72.85 505.5 75.25 505.5C77.65 505.5 78 505.6 78 506.5C78 507.3 78.35 507.5 79.75 507.5C81.15 507.5 81.5 507.3 81.5 506.5C81.5 505.6 81.85 505.5 85.75 505.5C89.65 505.5 90 505.6 90 506.5C90 507.3 90.35 507.5 91.75 507.5C93.15 507.5 93.5 507.3 93.5 506.5C93.5 505.6 93.85 505.5 97.75 505.5C101.65 505.5 102 505.6 102 506.5C102 507.3 102.35 507.5 103.75 507.5C105.15 507.5 105.5 507.3 105.5 506.5C105.5 505.6 105.85 505.5 109.75 505.5C113.65 505.5 114 505.6 114 506.5C114 507.4 114.35 507.5 116.75 507.5C119.15 507.5 119.5 507.4 119.5 506.5C119.5 505.6 119.85 505.5 122.75 505.5C125.65 505.5 126 505.6 126 506.5C126 507.25 126.35 507.5 127.25 507.5C128.15 507.5 128.5 507.25 128.5 506.5C128.5 505.55 128.85 505.5 135 505.5C139 505.5 141.5 505.3 141.5 505C141.5 504.35 144.85 504.35 145.1 504.95C145.2 505.25 147.05 505.45 149.25 505.5C154.6 505.6 154.35 505.65 154.65 504.5C154.95 503.35 156.65 503.2 159.7 504.05C161.05 504.45 161.75 504.45 162.15 504.05C162.45 503.75 163.85 503.5 165.25 503.5C168 503.5 170.5 502.6 170.5 501.65C170.5 501.25 171.15 501 172 501C172.85 501 173.5 500.8 173.5 500.5C173.5 500.25 174.2 500 175 500C175.85 500 176.5 499.8 176.5 499.5C176.5 499.25 177.3 499 178.25 499C179.45 499 180 498.75 180 498.25C180 497.75 180.5 497.5 181.65 497.5C182.7 497.5 183.7 497.1 184.25 496.5C184.75 495.95 185.8 495.5 186.6 495.5C187.35 495.5 188 495.3 188 495C188 494.75 188.55 494.4 189.25 494.2C190.05 494 190.5 493.55 190.5 492.9C190.5 491.6 192.7 489.5 194.15 489.5C194.8 489.5 195.8 488.95 196.4 488.25C197 487.55 197.8 487 198.2 487C198.55 487 199 486.35 199.15 485.6C199.3 484.85 200.1 483.5 200.95 482.6C202.15 481.4 202.5 480.55 202.5 479.05C202.5 477.95 202.75 476.9 203 476.75C203.3 476.6 203.5 476 203.5 475.45C203.5 474.95 203.75 474.5 204 474.5C204.3 474.5 204.5 474.1 204.5 473.6C204.5 472.55 205.4 471.5 206.3 471.5C206.95 471.5 211.5 466.95 212.95 464.9C213.35 464.3 214.3 462.25 215.1 460.35C216.45 457 216.5 456.6 216.5 447.85C216.5 439.05 216.7 437.7 217.5 441.1C217.7 442 217.9 387.9 217.95 320.9L218 199H219.25C219.95 199 220.5 198.8 220.5 198.5C220.5 198.25 220.95 198 221.5 198C222.7 198 225 197 225 196.45C225 196.25 225.45 195.9 226.05 195.75C227.35 195.35 230 192.6 230 191.7C230 191.3 230.2 191 230.5 191C230.75 191 231.25 190.05 231.55 188.9C231.9 187.7 232.35 186.55 232.6 186.25C232.8 186 233 185.25 233 184.5C233 183.8 233.2 182.9 233.5 182.5C233.75 182.05 233.75 181.55 233.5 181.25C233.2 180.9 233.2 180.05 233.5 179C234.1 176.85 234.15 111.9 233.5 109.25C233.2 107.85 233.2 107.15 233.6 106.95C234.15 106.6 233.75 104.4 232.45 101.1C232.2 100.45 232 99.5 232 99C232 98.45 231.8 98 231.5 98C231.25 98 231 97.65 231 97.2C231 96.3 229.8 95 228.95 95C228.6 95 228.45 94.85 228.65 94.7C228.8 94.55 228.45 93.85 227.85 93.25C227.25 92.6 226.25 91.45 225.6 90.75C224.95 89.95 223.95 89.35 223.25 89.35C222.55 89.4 222 89.2 222 89C222 88.8 221.1 88.5 220 88.3L218 88V40.7C218 9.85 217.8 -7.35 217.45 -8.9C216.25 -14.4 210.75 -21.25 205.45 -23.85C199.8 -26.65 205.4 -26.5 102.45 -26.5C40.05 -26.5 6.70001 -26.35 4.95001 -26C-2.09998 -24.65 -8.44998 -19.75 -11.8 -13.15L-13.75 -9.35L-13.8 216.7C-13.85 341.05 -13.7 442 -13.5 441.1C-12.7 437.7 -12.5 439.05 -12.5 447.7C-12.5 455.35 -12.35 456.95 -11.45 459.65C-10.9 461.35 -10.25 462.85 -10.05 463C-9.79999 463.15 -9.35001 463.85 -8.95001 464.6C-7.95001 466.5 -2.55002 472 -1.70001 472C-1.30002 472 -0.850006 472.4 -0.700012 472.9C-0.5 473.35 -0.100006 474.45 0.299988 475.3C0.649994 476.1 1.09998 477.75 1.29999 478.85C1.44998 480 2.25 481.6 3.04999 482.55C3.84998 483.5 4.64999 484.75 4.79999 485.4C5 486 5.35001 486.5 5.64999 486.5C5.89999 486.5 6.80002 487.2 7.60001 488C8.35001 488.85 9.45001 489.5 9.95001 489.5C10.85 489.5 13.5 491.75 13.5 492.55C13.5 493.6 15.95 495.5 17.35 495.5C18.45 495.5 19.45 496.05 20.9 497.55C22.05 498.7 23.2 499.45 23.5 499.25C23.85 499.05 25.5 499.05 27.3 499.25C29.55 499.5 30.5 499.8 30.5 500.3C30.5 500.75 31.05 501 32 501C33 501 33.5 501.25 33.5 501.75C33.5 502.15 33.95 502.5 34.45 502.5C35 502.5 35.6 502.75 35.75 503C35.9 503.3 37.15 503.5 38.5 503.5C40.15 503.5 41.1 503.75 41.35 504.25C41.7 504.85 42.05 504.85 43.75 504.25C44.85 503.85 46.5 503.55 47.4 503.5C48.65 503.5 49 503.7 49 504.5C49 505.45 49.35 505.5 54 505.5C57 505.5 59 505.3 59 505C59 504.75 59.8 504.5 60.75 504.5C61.7 504.5 62.5 504.75 62.5 505C62.5 505.3 64.25 505.5 66.75 505.5C70.65 505.5 71 505.6 71 506.5C71 507.05 71.35 507.5 71.75 507.5C72.15 507.5 72.5 507.05 72.5 506.5Z" fill="#C6EAF1"/>
<path d="M6.40002 14.7C4.05002 13.45 3.10003 10.5 5.00003 10.5C5.75003 10.5 6.10003 10.95 6.35003 12C6.55003 13.25 6.85001 13.5 8.05001 13.5C9.15001 13.5 9.50003 13.75 9.50003 14.5C9.50003 15.7 8.35002 15.8 6.40002 14.7Z" fill="#D6D3EF"/>
<path d="M13.7 10.25C11.4 5.75 9.04997 3.1 8.59997 4.4C8.49997 4.75 7.99998 5 7.44998 5C6.84998 5 6.49997 5.35 6.49997 6C6.49997 6.7 6.14995 7 5.29995 7C3.69995 7 4.04997 5.45 6.09997 3.75C7.54997 2.5 8.29998 2.3 10.2 2.5C10.7 2.55 12.1 2.05 13.3 1.45L15.45 0.25L16.85 1.3C18.3 2.35 23.85 12.35 23.25 12.9C23.1 13.05 21.8 13.2 20.35 13.25C18.15 13.25 17.75 13.4 17.9 14.15C18 14.7 17.7 15 17.1 15C16.4 15 15.5 13.75 13.7 10.25Z" fill="#D6D3EF"/>
<path d="M6.70001 14.8C5.40001 14.2 4.5 13.15 4.5 12.2C4.5 11.7 6.29999 12.05 8.04999 12.9C9.19999 13.4 10 14.1 10 14.65C10 15.65 8.85001 15.75 6.70001 14.8Z" fill="#BBBED9"/>
<path d="M13.25 9.99998C11.15 5.94998 10.15 4.49998 9.5 4.49998C8.35 4.49998 6 6.74998 6 7.74998C6 8.14998 5.55 8.49998 5 8.49998C3.8 8.49998 3.70001 7.49998 4.70001 5.54998C6.20001 2.69998 9.64999 1.64998 11.8 3.39998C12.9 4.24998 18 13.7 18 14.85C18 15.2 17.55 15.5 17 15.5C16.3 15.5 15.35 14.15 13.25 9.99998Z" fill="#BBBED9"/>
<path d="M7.15 14.75C4.7 13.7 3.85001 12 4.10001 8.64998C4.30001 6.19998 4.6 5.64998 6.15 4.14998C9.65 0.949981 11.5 2.04998 15.25 9.54998C16.75 12.55 18 15.1 18 15.25C18 15.85 8.65 15.4 7.15 14.75ZM14.5 13.15C14.5 12.65 10.95 6.34998 10.15 5.44998C9.15 4.29998 7.29999 5.24998 6.54999 7.24998C5.79999 9.44998 5.85 9.94998 7.15 11.85C8.2 13.4 8.4 13.5 11.4 13.5C13.1 13.5 14.5 13.35 14.5 13.15Z" fill="#7067C6"/>
<path d="M5.79995 13.45C4.09995 11.45 3.74997 9.85001 4.44997 7.40001C5.59997 3.60001 9.59995 1.65001 11.65 3.90001C12.4 4.70001 17.5 14.2 17.5 14.75C17.5 14.9 15.1499 15 12.2999 15C7.09995 15 7.09995 15 5.79995 13.45Z" fill="#3326AE"/>
</g>
<defs>
<clipPath id="clip0_2_5">
<rect width="800" height="600" fill="white" transform="translate(-295 -73)"/>
</clipPath>
</defs>
</svg>
