<svg width="26" height="23" viewBox="0 0 26 23" fill="none" xmlns="http://www.w3.org/2000/svg">
<g clip-path="url(#clip0_5_1424)">
<path d="M85 748.65C82.85 748.35 79.35 747.45 76.25 746.4C65 742.6 55.1 732.9 50.75 721.3C47.85 713.6 48 729.2 48 463.9V220H34.65C20.2 219.95 19.2 219.8 15.45 217.2C12.7 215.3 10.65 212.2 9.69996 208.5C8.64996 204.45 8.89997 175.4 9.99997 172.3C11.05 169.45 15 165.35 18.1 163.95C20.65 162.8 21.25 162.75 34.35 162.6L48 162.45L48.15 84.35C48.25 14 48.35 5.90001 49.1 2.95001C53.1 -13.2 64.6 -24.85 80.4 -28.8C82.3 -29.3 88.45 -29.7 99 -30C121.75 -30.65 1013.95 -30.65 1019.75 -30C1025.5 -29.3 1029.4 -28.3 1033.5 -26.4C1046.25 -20.55 1054.95 -9.24999 1057.6 4.90001C1058.15 7.60001 1058.25 76.85 1058.25 359.75C1058.25 698.05 1058.2 711.4 1057.35 715.5C1054.05 730.75 1043.6 742.15 1028 747.35L1023.75 748.75L555 748.8C297.2 748.85 85.7 748.8 85 748.65ZM383.5 714.05C383.5 713.85 385.15 713.5 387.15 713.3C393.4 712.75 394.9 712.45 396 711.4C396.55 710.85 397.55 710.15 398.15 709.85C399.05 709.4 363.95 709.25 250.05 709.25C168 709.25 101.2 709.3 101.65 709.4C102.1 709.5 102.5 709.75 102.5 709.95C102.5 710.6 106.6 712.4 109.4 712.95C110.85 713.25 113.15 713.5 114.5 713.5C115.85 713.5 117.1 713.75 117.25 714C117.65 714.65 383.5 714.7 383.5 714.05ZM721.5 714C721.5 713.7 723 713.5 724.95 713.5C726.9 713.5 728.6 713.3 728.75 713C728.9 712.75 729.95 712.5 731.05 712.5C732.5 712.5 733.4 712.15 734.4 711.25C735.15 710.55 736.15 710 736.6 710C737.1 710 737.5 709.85 737.5 709.65C737.5 709.4 670.3 709.25 588.1 709.25C505.95 709.25 439.3 709.35 439.95 709.4C440.6 709.5 441.25 710 441.35 710.55C441.5 711.05 442.05 711.5 442.55 711.5C443.05 711.5 443.6 711.75 443.75 712C443.9 712.3 444.95 712.5 446 712.5C447.05 712.5 448.1 712.75 448.25 713C448.4 713.3 450 713.5 451.75 713.5C453.5 713.5 455.1 713.75 455.25 714C455.45 714.35 500.4 714.5 588.55 714.5C676.85 714.5 721.5 714.35 721.5 714ZM1001.6 705.5C1003.8 704.85 1006.8 702.1 1007.8 699.75C1008.4 698.25 1008.5 661.85 1008.5 436.35C1008.5 292.4 1008.65 173.9 1008.8 173.05C1009.1 171.55 1009.2 171.5 1012.05 171.5C1017.05 171.5 1022.6 170.5 1025.6 169.1C1027.2 168.35 1028.5 167.45 1028.5 167.15C1028.5 166.8 1028.8 166.45 1029.15 166.45C1030.7 166.25 1024.35 165.6 1020.9 165.55L1017 165.5V163.75V162H1022.85H1028.7L1030.35 160.4L1032 158.8V147.6V136.4L1030.3 134.7L1028.6 133H1002H975.4L973.7 134.7L972 136.4V147.25C972 162.2 971.85 161.95 982.4 162H989.5V163.75V165.5H981.9C972 165.5 971 165.3 969.6 163.3C968.55 161.75 968.5 161.3 968.5 147.15V132.6L970.25 131.05L972.05 129.5L981.4 129.4C986.55 129.3 992.45 129.35 994.5 129.45C996.55 129.5 1000.55 129.45 1003.4 129.25L1008.55 128.9L1008.4 104.55L1008.25 80.2L1006.85 78.1C1006 76.8 1004.6 75.55 1003 74.75L1000.55 73.5H890.25C797.4 73.5 779.7 73.6 778.3 74.2C776.1 75.1 773.6 77.6 772.7 79.85C772 81.45 771.9 115.1 771.9 389.7C771.95 607.65 772.1 698.15 772.45 699.15C773.8 702.7 776.6 705.1 780.25 705.9C783.15 706.5 999.45 706.1 1001.6 705.5ZM707.6 679.9C711.55 678.05 714.7 675 716.65 671.05C718 668.3 718.25 667.2 718.25 664.25C718.25 657.75 714.1 651.7 707.5 648.55L704.75 647.25H667.75H630.75L627.5 648.8C619.45 652.65 614.85 661.35 617.25 668.45C618.25 671.5 621.75 676.3 624.2 677.9C625.15 678.55 627.25 679.65 628.85 680.3L631.75 681.5L668.25 681.35L704.75 681.25L707.6 679.9ZM186.5 627.5C186.5 626.65 186.85 626.5 188.5 626.5C189.6 626.5 190.5 626.75 190.5 627C190.5 627.3 190.75 627.5 191 627.5C191.3 627.5 191.5 627.05 191.5 626.5C191.5 625.65 191.85 625.5 193.5 625.5C194.6 625.5 195.5 625.75 195.5 626C195.5 626.3 197 626.5 199 626.5C201 626.5 202.5 626.7 202.5 627C202.5 627.3 203.4 627.5 204.5 627.5C205.6 627.5 206.5 627.3 206.5 627.05C206.5 626.75 208.3 626.55 210.5 626.55C212.7 626.55 214.5 626.75 214.5 627C214.5 627.3 214.75 627.5 215 627.5C215.3 627.5 215.5 627.05 215.5 626.5C215.5 625.65 215.85 625.5 217.5 625.5C218.6 625.5 219.5 625.75 219.5 626C219.5 626.3 221 626.5 223 626.5C225 626.5 226.5 626.7 226.5 627C226.5 627.3 226.75 627.5 227 627.5C227.3 627.5 227.5 627.05 227.5 626.5C227.5 625.7 227.85 625.5 229.25 625.5C230.2 625.5 231 625.75 231 626C231 626.3 232.6 626.5 234.75 626.5C236.9 626.5 238.5 626.7 238.5 627C238.5 627.3 238.75 627.5 239 627.5C239.3 627.5 239.5 627.05 239.5 626.5C239.5 625.65 239.85 625.5 241.5 625.5C242.6 625.5 243.5 625.75 243.5 626C243.5 626.3 244.05 626.5 244.75 626.5C245.7 626.5 246 626.8 246.05 627.65L246.15 628.75L246.35 627.65C246.55 626.7 246.9 626.5 248.55 626.5C249.6 626.5 250.5 626.75 250.5 627C250.5 627.3 250.75 627.5 251 627.5C251.3 627.5 251.5 627.05 251.5 626.5C251.5 625.65 251.85 625.5 253.5 625.5C254.6 625.5 255.5 625.75 255.5 626C255.5 626.3 257 626.5 259 626.5C261 626.5 262.5 626.7 262.5 627C262.5 627.3 262.75 627.5 263 627.5C263.3 627.5 263.5 627.05 263.5 626.5C263.5 625.7 263.85 625.5 265.25 625.5C266.2 625.5 267 625.75 267 626C267 626.3 268.6 626.5 270.75 626.5C272.9 626.5 274.5 626.7 274.5 627C274.5 627.3 274.75 627.5 275 627.5C275.3 627.5 275.5 627.05 275.5 626.5C275.5 625.65 275.85 625.5 277.5 625.5C278.6 625.5 279.5 625.75 279.5 626C279.5 626.3 281 626.5 283 626.5C285 626.5 286.5 626.7 286.5 627C286.5 627.3 286.75 627.5 287 627.5C287.3 627.5 287.5 627.05 287.5 626.5C287.5 625.7 287.85 625.5 289 625.5C290.75 625.5 291.05 624.65 289.4 624.4C288.55 624.3 288.2 623.85 288.1 622.9C288 621.85 287.6 621.4 286.6 621.15C285 620.75 284 619.85 284 618.75C284 616.65 273.15 605.6 269.2 603.75C265.3 601.9 263.35 601.8 258 603.05C251 604.7 243.5 604.6 238.55 602.8C234.1 601.25 233.5 601.2 233.5 602.5C233.5 603.05 233.3 603.5 233.1 603.5C232.85 603.5 232.35 604.1 231.95 604.85C231 606.75 226.2 611.5 225.25 611.5C224.85 611.5 224.5 611.75 224.5 612C224.5 612.3 224.05 612.5 223.55 612.5C223 612.5 222.4 612.75 222.25 613C222.1 613.3 221.05 613.5 219.95 613.5C218.85 613.5 218 613.75 218 614.05C218 614.45 216.95 614.5 214.65 614.3C212.75 614.1 209.7 613.85 207.75 613.7C205.85 613.5 204.05 613.2 203.75 613C203.5 612.8 202.2 612.35 200.9 611.95C199.55 611.6 198.5 611.1 198.5 610.9C198.5 610.7 198.05 610.5 197.5 610.5C196.95 610.5 196.5 610.3 196.5 610C196.5 609.75 196.05 609.5 195.5 609.5C194.95 609.5 194.5 609.3 194.5 609C194.5 608.1 193.05 608.45 192.5 609.45C192.25 610 192 611 192 611.7C192 612.65 191.75 613 191 613C189.45 613 186.05 616.95 186 618.85C186 620 185.7 620.5 185 620.75C184.45 620.9 184 621.3 184 621.55C184 621.8 183.55 622 183 622C182.45 622 182 622.25 182 622.5C182 622.8 181.65 623 181.25 623C180.85 623 180.5 623.25 180.5 623.5C180.5 623.8 180.05 624 179.5 624C178.95 624 178.5 624.25 178.5 624.5C178.5 624.8 177.1 625 175.3 625C173.5 625 171.9 624.8 171.75 624.5C171.6 624.25 170.8 624 170 624C168.6 624 166 623.1 165.5 622.45C165.35 622.25 164.7 622 164 621.95C163.2 621.8 162.7 621.35 162.5 620.5C162.25 619.45 161.9 619.25 160 619.1C157.5 618.9 156.5 618.3 156.5 616.95C156.5 616.45 156 615.8 155.45 615.45C154.5 614.95 154.2 615.1 152.95 616.55C152.15 617.5 151.5 618.5 151.5 618.75C151.5 619.05 151.05 619.6 150.5 620C149.95 620.4 149.5 621 149.5 621.35C149.5 621.7 149.3 622 149 622C148.75 622 148.5 622.3 148.5 622.65C148.5 623.05 148.05 623.75 147.5 624.25C145.9 625.7 147.35 626.6 151.25 626.55C153.1 626.55 154.5 626.75 154.5 627C154.5 627.3 154.75 627.5 155 627.5C155.3 627.5 155.5 627.05 155.5 626.5C155.5 625.65 155.85 625.5 157.5 625.5C158.6 625.5 159.5 625.75 159.5 626C159.5 626.3 161 626.5 163 626.5C165 626.5 166.5 626.7 166.5 627C166.5 627.3 166.75 627.5 167 627.5C167.3 627.5 167.5 627.05 167.5 626.5C167.5 625.65 167.85 625.5 169.5 625.5C170.6 625.5 171.5 625.75 171.5 626C171.5 626.3 172.9 626.5 174.7 626.5C176.5 626.5 178.1 626.75 178.25 627C178.75 627.85 179.5 627.55 179.5 626.5C179.5 625.65 179.85 625.5 181.5 625.5C183.4 625.5 183.5 625.6 183.5 627C183.5 628.35 183.65 628.5 185 628.5C186.15 628.5 186.5 628.3 186.5 627.5ZM368.55 626.5C369.6 626.5 370.5 626.75 370.5 627C370.5 627.3 371.4 627.5 372.5 627.5C373.6 627.5 374.5 627.3 374.5 627C374.5 626.7 376.15 626.5 378.5 626.5C380.85 626.5 382.5 626.7 382.5 627C382.5 627.3 382.75 627.5 383 627.5C383.3 627.5 383.5 627.05 383.5 626.5C383.5 625.65 383.85 625.5 385.5 625.5C386.6 625.5 387.5 625.75 387.5 626C387.5 626.3 389 626.5 391 626.5C393 626.5 394.5 626.7 394.5 627C394.5 627.3 394.75 627.5 395 627.5C395.3 627.5 395.5 627.05 395.5 626.5C395.5 625.65 395.85 625.5 397.5 625.5C398.6 625.5 399.5 625.75 399.5 626C399.5 626.3 400.9 626.5 402.7 626.5H405.85L406.15 623.15C406.3 621.25 406.45 609.55 406.5 597.15L406.55 574.5H404.9C403.95 574.5 403 574.3 402.7 574.05C401.35 572.65 394.5 569.45 391.4 568.7C386.45 567.5 384.05 568.1 374.25 573C360.75 579.75 357.15 580.55 341.35 580.5C330.25 580.45 328.9 580.65 325.5 582.75C319.5 586.5 316.4 593.8 314.95 607.55C314.7 610.15 314.35 613.2 314.2 614.4C314 615.75 314.1 616.5 314.45 616.5C314.75 616.5 315 617.3 315 618.25C315 619.65 314.8 620 314 620C313.15 620 313 620.35 313 622.25C313 624.1 312.85 624.5 312.05 624.5C311.4 624.5 311.05 624.95 310.9 626C310.75 626.85 310.85 627.5 311.1 627.5C311.3 627.5 311.5 627.05 311.5 626.5C311.5 625.65 311.85 625.5 313.5 625.5C314.6 625.5 315.5 625.75 315.5 626C315.5 626.3 317 626.5 319 626.5C321 626.5 322.5 626.7 322.5 627C322.5 627.3 322.75 627.5 323 627.5C323.3 627.5 323.5 627.05 323.5 626.5C323.5 625.65 323.85 625.5 325.5 625.5C326.6 625.5 327.5 625.75 327.5 626C327.5 626.3 329 626.5 331 626.5C333 626.5 334.5 626.7 334.5 627C334.5 627.3 334.75 627.5 335 627.5C335.3 627.5 335.5 627.05 335.5 626.5C335.5 625.65 335.85 625.5 337.5 625.5C338.6 625.5 339.5 625.75 339.5 626C339.5 626.3 341 626.5 343 626.5C345 626.5 346.5 626.7 346.5 627C346.5 627.3 346.75 627.5 347 627.5C347.3 627.5 347.5 627.05 347.5 626.5C347.5 625.65 347.85 625.5 349.45 625.5C350.55 625.5 351.5 625.75 351.6 626.05C351.7 626.4 353.1 626.6 355.15 626.55C357.05 626.55 358.5 626.7 358.5 627C358.5 627.3 358.75 627.5 359 627.5C359.3 627.5 359.5 627.05 359.5 626.5C359.5 625.65 359.85 625.5 361.5 625.5C362.6 625.5 363.5 625.75 363.5 626C363.5 626.3 364.05 626.5 364.75 626.5C365.7 626.5 366 626.8 366.05 627.65L366.15 628.75L366.35 627.65C366.55 626.7 366.9 626.5 368.55 626.5ZM128.5 623.5C128.5 622.65 128.85 622.5 130.75 622.5C132 622.5 133 622.75 133 623C133 623.85 134.75 623.55 135.9 622.5C136.5 621.95 137.2 621.5 137.5 621.5C138.1 621.5 139.5 620.3 139.5 619.8C139.5 619.65 140.45 618.55 141.65 617.3C143.7 615.2 145.5 612.85 145.5 612.25C145.5 611.8 142.2 611.95 139.5 612.55C137.95 612.9 137 613.35 137 613.8C137 614.3 136.35 614.5 134.75 614.5C133.1 614.5 132.5 614.7 132.5 615.25C132.5 615.8 131.95 616 130.75 616C129.5 616 128.85 616.25 128.65 616.9C128.2 618 127.5 618.5 126.15 618.5C125.45 618.5 125 618.8 125 619.25C125 619.65 124.55 620 124 620C123.45 620 123 620.25 123 620.5C123 620.8 122.35 621 121.55 621C120.4 621 120.05 621.25 119.9 622.25C119.65 623.5 119.7 623.5 123.05 623.5C124.9 623.5 126.6 623.75 126.75 624C127.3 624.9 128.5 624.55 128.5 623.5ZM466.85 620.45C467.75 619.85 469 618.5 469.55 617.45C470.5 615.5 470.5 615.5 469.55 613.55C466.95 608.5 461.55 608.55 458.95 613.6C457.95 615.55 457.95 615.6 458.9 617.4C459.95 619.45 462.6 621.5 464.15 621.5C464.7 621.5 465.9 621.05 466.85 620.45ZM540.75 620.15L542.75 618.75L539.5 618.5L536.25 618.25L536 614.05L535.75 609.9L534.4 611.15C533.7 611.8 532.7 613.1 532.25 613.95C531.45 615.5 531.5 615.65 532.75 617.75C534.05 620.05 535.95 621.45 537.75 621.5C538.3 621.5 539.65 620.9 540.75 620.15ZM625 618.05C625 616.7 625.3 615.45 625.85 614.9C626.6 614.05 626.6 614 625.2 614C623.4 614 622.75 613.55 622.25 612.05C621.9 610.9 621.9 610.9 620.95 612.45C620.2 613.75 619.7 614 618.15 614L616.25 614.05L617.4 614.95C618.2 615.7 618.5 616.45 618.5 618.1V620.25H621.75H625V618.05ZM542.95 613.45C542.65 612.65 541.7 611.5 540.95 610.95L539.5 609.95V612.2C539.5 614.5 539.5 614.5 541.25 614.5C542.8 614.5 543 614.65 543.05 615.9C543.15 617.1 543.15 617.15 543.35 616.1C543.5 615.45 543.3 614.25 542.95 613.45ZM216.25 606C216.4 605.75 217.2 605.5 217.95 605.5C218.75 605.5 219.65 605.15 220 604.75C220.35 604.35 220.9 604 221.25 604C221.6 604 222.45 603.35 223.1 602.5C225.95 598.85 226.5 598.05 226.5 597.65C226.5 597.05 221.65 595.15 217.85 594.25C215.1 593.65 214 593.6 212.1 594.05C208.45 594.95 204.8 596.9 201.75 599.65L198.95 602.1L201.2 603.3C202.45 603.95 204 604.5 204.7 604.5C205.4 604.5 206.1 604.75 206.25 605C206.4 605.3 207.65 605.5 209 605.5C210.35 605.5 211.6 605.75 211.75 606C211.9 606.3 212.95 606.5 214 606.5C215.05 606.5 216.1 606.3 216.25 606ZM349.9 536.25C351.6 536.05 353 535.75 353 535.5C353 535.3 354 534.95 355.2 534.8C356.8 534.55 357.45 534.2 357.65 533.5C357.8 532.8 358.35 532.5 359.2 532.5C360.3 532.5 360.5 532.3 360.5 531C360.5 529.85 360.7 529.5 361.5 529.5C362.15 529.5 362.5 529.15 362.5 528.6C362.5 528.05 362.95 527.25 363.5 526.75C364.05 526.25 364.45 525.35 364.45 524.8C364.4 523.8 364.35 523.8 364.15 524.75C363.7 526.55 360.9 529 358.4 529.75C356.55 530.3 353.7 530.35 345 530.15L334 529.85V528.15V526.5H344.55C356.45 526.5 357.6 526.2 359.9 522.7C361 521 361.05 520.6 360.9 511.8L360.75 502.65L359.3 500.8C356.8 497.45 357 497.5 332.3 497.5C309.05 497.5 308.55 497.55 306.1 499.7C303.85 501.65 303.5 503.5 303.5 512.5C303.5 520.35 303.55 520.95 304.65 522.55C305.25 523.45 306.55 524.75 307.45 525.35C309.1 526.45 309.55 526.5 319.8 526.5H330.5V528.25V530L321.4 530.1C306.05 530.35 306.45 530.35 304 528.7C300.9 526.65 300.1 524.95 299.7 519.85C299.5 517.5 299.15 515.65 298.95 515.8C298.7 515.95 298.5 518.2 298.5 520.85C298.5 524.85 298.65 525.8 299.5 526.85C300.05 527.55 300.5 528.45 300.5 528.8C300.5 529.2 300.95 529.5 301.5 529.5C302.3 529.5 302.5 529.85 302.5 531C302.5 532.15 302.7 532.5 303.5 532.5C304 532.5 304.95 533 305.6 533.65C306.5 534.55 307.8 534.95 311.05 535.45C313.4 535.8 315.65 536.3 316.05 536.55C316.8 537.05 344.7 536.8 349.9 536.25ZM481.15 526.8C486.15 524.25 489.45 520.1 491 514.4C491.7 511.75 491.2 509 489.35 505.25C486.35 499.15 479.35 494.95 473.3 495.7C465.8 496.55 458.35 504.7 458.35 512C458.35 518.7 464.6 526.25 471.75 528.15C474.1 528.8 478.4 528.2 481.15 526.8ZM267 341.75L267.25 243.75L268.55 240.95C270.5 236.85 272.9 234.4 277 232.55C280.1 231.1 281.05 230.9 285.15 230.85C288.85 230.85 290.3 231.05 292.7 232C296.35 233.4 300.15 236.8 301.9 240.25C304.05 244.55 303.95 234 304 434.4V440L518.9 439.9C724.7 439.75 733.85 439.7 735.15 438.85C737.15 437.55 739.3 435.2 740.2 433.25C740.95 431.75 741 420.25 740.9 308.9L740.75 186.25L739.45 184.25C738.7 183.15 737.15 181.55 736 180.75L733.85 179.25L419.8 179.1C134.6 179 105.55 179.05 103.65 179.75C101.4 180.6 98.3 183.7 97.45 185.9C96.75 187.7 96.75 431.25 97.45 433.1C98.05 434.7 100.75 437.85 102.2 438.6C102.75 438.95 104.15 439.35 105.25 439.55C106.35 439.7 143.15 439.85 187 439.8L266.75 439.75L267 341.75ZM286 288.25C286 268 285.8 256.95 285.5 256.75C285.15 256.55 285 267.15 285 288.25C285 309.35 285.15 319.95 285.5 319.75C285.8 319.55 286 308.5 286 288.25ZM55.5 224.65C55.5 224.3 56.4 223.75 57.5 223.45C58.6 223.1 59.5 222.55 59.5 222.15C59.5 221.8 59.95 221.5 60.5 221.5C61.15 221.5 61.6 221.05 61.8 220.25C61.95 219.55 62.4 219 62.75 219C63.4 219 64 217.5 64 215.8C64 215.3 64.35 214.6 64.8 214.25C65.25 213.95 65.55 213.3 65.45 212.85C65.3 212.2 64.8 212.6 63.5 214.35C61.55 217 56.45 220 53.95 220C52.3 220 52.2 220.15 51.8 223.8L51.5 226.35L53.5 225.85C54.6 225.55 55.5 225 55.5 224.65ZM66.9 208.65C67.3 207.3 67.75 205.9 68 205.45C68.2 205.05 68.3 203.7 68.15 202.45C68.05 201.25 68.15 198.25 68.35 195.85C68.7 192.45 68.65 191.1 68.15 190.15C67.8 189.45 67.45 188.2 67.45 187.3C67.25 183.05 66.6 192.2 66.55 199.85C66.5 204.55 66.3 209 66 209.7C65.75 210.4 65.7 211 65.9 211C66.1 211 66.55 209.95 66.9 208.65ZM34.5 195.75V193.5H37.75H41V195.8C41 197.7 41.15 198.05 41.9 197.9C42.6 197.75 42.8 197.05 43 193.8L43.25 189.85L40.55 187.45L37.8 185L35.1 187.6L32.35 190.2L32.45 193.7C32.6 197.55 32.7 198 33.8 198C34.3 198 34.5 197.4 34.5 195.75ZM725.5 162.05C725.5 161.8 727.05 161.5 728.9 161.3C730.75 161.1 732.95 160.65 733.7 160.25C734.5 159.85 735.45 159.5 735.8 159.5C736.2 159.5 736.5 159.3 736.5 159.05C736.5 158.8 737.25 158.25 738.2 157.8C739.15 157.35 740.4 156.4 740.9 155.75C741.45 155.05 742.25 154.5 742.65 154.5C743.05 154.5 743.7 153.85 744.1 153C744.45 152.2 744.9 151.5 745.1 151.5C745.35 151.5 745.5 151.1 745.5 150.55C745.5 150.05 745.85 149.35 746.25 149C746.65 148.65 747 148 747 147.5C747 147 747.35 146.35 747.75 146C748.15 145.65 748.5 144.85 748.5 144.2C748.5 143.6 748.75 142.45 749.05 141.65C749.8 139.8 750.1 94.8 749.4 91.25C749.15 89.9 748.5 87.6 747.95 86.25C747.45 84.85 747 83.45 747 83.1C747 82.8 746.75 82.5 746.45 82.5C746.2 82.5 746.1 82.75 746.25 83.05C746.45 83.3 746.45 84.9 746.25 86.55C745.9 89.5 745.9 89.5 744.25 89.5C742.9 89.5 742.55 89.25 742.3 88.2C742.1 87.45 742.1 85.7 742.25 84.25C742.5 82.55 742.4 81.5 742.05 81.3C741.75 81.1 741.5 80.5 741.5 79.95C741.5 78.45 736.55 73.75 734.55 73.35C733.65 73.15 693.55 73 645.45 73H558.05L555.3 74.3C552.85 75.45 552.35 75.95 551 78.65C550.2 80.3 549.5 82.3 549.5 83.1C549.5 84.35 549.35 84.5 547.8 84.5C546.2 84.5 546.05 84.35 545.9 82.9C545.75 81.25 545.75 81.25 544.4 84C541.95 89.1 541.9 89.7 541.9 114.85C541.9 127.8 542 138.6 542.15 138.85C542.25 139.05 542.55 140.6 542.75 142.25C542.9 143.9 543.4 145.75 543.8 146.35C544.2 146.95 544.5 147.8 544.5 148.25C544.5 148.7 544.85 149.15 545.25 149.3C545.65 149.5 546 150 546 150.5C546 151.4 550.7 156.5 551.55 156.5C551.75 156.5 552.2 156.95 552.5 157.5C552.8 158.05 553.35 158.5 553.75 158.5C554.15 158.5 554.5 158.75 554.5 159C554.5 159.3 555.1 159.5 555.8 159.5C556.5 159.5 557.4 159.8 557.8 160.2C558.2 160.6 560.05 161.1 562 161.3C563.95 161.45 565.5 161.8 565.5 162.05C565.5 162.25 601.5 162.45 645.5 162.45C689.5 162.45 725.5 162.25 725.5 162.05ZM272 157.8C274.35 157.6 276.7 157.25 277.25 157.05C277.8 156.8 279 156.3 279.9 155.9C280.75 155.55 281.5 155.1 281.5 154.9C281.5 154.65 281.8 154.5 282.2 154.5C282.6 154.5 283.1 154.3 283.25 154C283.45 153.65 253.25 153.5 193.05 153.5C133 153.5 102.5 153.65 102.5 154C102.5 154.3 102.9 154.5 103.4 154.5C103.9 154.5 104.6 154.95 105 155.5C105.4 156.1 106.3 156.5 107.1 156.5C107.85 156.5 108.5 156.75 108.5 157C108.5 157.3 110.25 157.5 112.7 157.5C115.05 157.5 117.1 157.75 117.25 158C117.6 158.55 264.3 158.35 272 157.8ZM498.75 157.75C500.95 157.55 502.95 157.2 503.2 156.95C503.5 156.7 504.25 156.5 504.85 156.5C505.5 156.5 506.5 156.05 507.1 155.5C507.7 154.95 508.5 154.5 508.85 154.5C509.2 154.5 509.5 154.3 509.5 154C509.5 153.65 479.2 153.5 419.65 153.5C370.2 153.5 329.2 153.35 328.5 153.15C327.35 152.85 327.3 152.85 328.1 153.65C328.55 154.1 329.3 154.5 329.7 154.5C330.15 154.5 330.5 154.75 330.5 155C330.5 155.3 330.95 155.5 331.5 155.5C332.05 155.5 332.5 155.75 332.5 156C332.5 156.3 332.95 156.5 333.45 156.5C334 156.5 334.6 156.75 334.75 157C334.9 157.3 337.05 157.5 339.5 157.5C341.95 157.5 344.1 157.75 344.25 158C344.6 158.55 491.85 158.35 498.75 157.75ZM386.1 129.95C388.2 128.85 388.5 126.75 388.5 114.35V102.7L385.8 101.8C383.6 101.05 382.8 101 381.4 101.45C379.8 102 377.5 104 377.5 104.9C377.5 105.1 376.65 106.2 375.6 107.25C374.55 108.35 373.55 109.65 373.35 110.15C373.2 110.6 372.6 111.15 372.15 111.35C371.65 111.55 370.65 112.3 369.85 113.05C367.45 115.45 359.2 115.8 356.85 113.6C356.2 113 355.5 112.5 355.25 112.5C354.6 112.5 352.5 110.4 352.5 109.75C352.5 109.45 351.95 108.65 351.25 108C350.55 107.35 350 106.55 350 106.2C350 105.85 349.75 105.5 349.45 105.4C349.15 105.3 348.75 104.45 348.5 103.5C348.25 102.45 348.1 106.6 348.05 114.25C348.05 127.6 348.15 128.5 350.55 129.8C352.1 130.65 384.5 130.8 386.1 129.95ZM157.2 128.75C160.1 127.35 160.5 126 160.5 117.3V109.5H157.15C154.65 109.5 153.3 109.25 152.1 108.5C150.25 107.35 143.85 102.05 143.6 101.4C143.3 100.65 139.3 99.9 137.25 100.25C135.8 100.45 134.7 101.05 133.65 102.15C132.15 103.75 128.85 109.05 128.3 110.8C127.9 112.15 123.8 116.3 122.15 117.1C120.9 117.7 120.75 118.05 120.6 120.8C120.4 125.05 121.3 127.55 123.5 128.6C125.05 129.35 127.15 129.45 140.4 129.5C153 129.5 155.85 129.35 157.2 128.75ZM613.15 68.65C610.05 68.55 604.9 68.55 601.65 68.65C598.4 68.7 600.95 68.8 607.25 68.8C613.6 68.8 616.25 68.7 613.15 68.65ZM626.85 68.65C625.85 68.55 624.25 68.55 623.35 68.65C622.5 68.75 623.35 68.85 625.25 68.85C627.2 68.85 627.9 68.75 626.85 68.65ZM640.15 68.65C638.7 68.55 636.25 68.55 634.65 68.65C633.05 68.75 634.25 68.8 637.25 68.8C640.3 68.8 641.6 68.75 640.15 68.65ZM657.65 68.65C657 68.55 655.9 68.55 655.15 68.65C654.35 68.75 654.9 68.85 656.25 68.85C657.65 68.85 658.25 68.75 657.65 68.65ZM668.65 68.65C667.5 68.55 665.45 68.55 664.15 68.65C662.85 68.75 663.8 68.8 666.25 68.8C668.75 68.8 669.8 68.75 668.65 68.65ZM683.65 68.65C681.95 68.55 679 68.55 677.15 68.65C675.3 68.75 676.7 68.8 680.25 68.8C683.85 68.8 685.35 68.75 683.65 68.65ZM702.65 68.65C700.4 68.55 696.55 68.55 694.15 68.65C691.75 68.7 693.6 68.8 698.25 68.8C702.95 68.8 704.9 68.7 702.65 68.65ZM508.7 40.8C510.7 39.95 513.15 37.65 514.2 35.6C515.3 33.5 515.35 20.75 514.3 18.35C513.35 16.1 510.85 13.6 508.75 12.7C507.15 12.05 482.8 11.95 306.6 12C178.45 12 105.6 12.2 104.5 12.5C102.2 13.15 99.25 16.2 98.25 18.95C97.35 21.5 97.2 31.2 98.05 34.2C98.7 36.6 101.95 40.2 104.1 40.9C105.25 41.25 168.4 41.4 306.4 41.45C476.35 41.5 507.3 41.4 508.7 40.8ZM1005.2 36.3C1007.9 34.25 1009 31.6 1009 26.85C1009 18.6 1005.9 15.5 997.5 15.5C992.05 15.5 989.7 16.45 987.65 19.6C986.5 21.3 986.2 22.35 986.1 25.5C985.85 30.1 986.55 32.85 988.4 34.9C990.8 37.65 992.15 38.05 998.05 37.9C1003 37.75 1003.45 37.65 1005.2 36.3ZM959 27.9C959 27 958.85 25.4 958.7 24.4C958.4 22.8 958.15 22.5 957.15 22.5C955.15 22.5 953.5 24.6 953.5 27.25V29.5H956.25H959V27.9Z" fill="white"/>
<path d="M4 21.35C1.4 20.45 0 18 0 14.3C0 10 0.750003 7.85 2.8 6.05C4.3 4.7 4.9 4.5 7.55 4.5C10.05 4.5 10.75 4.7 11.75 5.7C13.7 7.65 18.5 17.85 18.5 20.1V22L12.15 21.95C8.55 21.95 5 21.7 4 21.35Z" fill="white"/>
<path d="M4.15 21.65C3.25 21.5 3 21.1 3 19.95C3 18.55 3.05 18.5 4.15 19.2C4.75 19.6 6 20.05 6.9 20.25C7.8 20.45 8.5 20.9 8.5 21.3C8.5 22 6.7 22.15 4.15 21.65Z" fill="#EDECF7"/>
<path d="M16.25 18C15.25 16.1 15.3 16 16.75 16C17.85 16 18 16.2 18 17.75C18 19.9 17.3 20 16.25 18Z" fill="#EDECF7"/>
<path d="M0 16.25C0 14.4 1.15 13.75 1.65 15.4C1.75 15.85 2.05 16.65 2.25 17.15C2.55 17.85 2.35 18 1.3 18C0.150003 18 0 17.8 0 16.25Z" fill="#EDECF7"/>
<path d="M2 7.9C2 6.05 2.05 6 3.85 6H5.7L4.45 7.1C3.8 7.7 3 8.55 2.65 9C2.15 9.6 2.05 9.45 2 7.9Z" fill="#EDECF7"/>
<path d="M-93 359V-91H507H1107V147.15V385.25L1103.65 386.4C1088.95 391.45 1073.6 398.4 1062.75 404.95L1057.75 407.95L1057.5 557.6C1057.3 664.25 1057.2 607 1057.1 358.5C1057 19.3 1056.95 9.65 1056.05 5.25C1054.9 -0.349998 1053.55 -3.95 1051.1 -7.9C1045.05 -17.95 1036.05 -24.7 1025 -27.65L1020.75 -28.75H555.5C299.6 -28.75 88.9 -28.55 87.25 -28.35C85.6 -28.15 67.4 -27.9 46.75 -27.85C12.9 -27.75 8.9 -27.65 5.5 -26.85C3.45 -26.35 1.3 -25.75 0.75 -25.5C0.199997 -25.25 -1.35 -24.55 -2.75 -23.95C-13.65 -19.25 -21.3 -9.5 -24.35 3.4C-25.2 7.1 -25.25 21.25 -25.25 359C-25.2 690.35 -25.15 710.95 -24.35 714.5C-22.85 720.95 -20.15 727.1 -17.55 729.95C-16.9 730.65 -16.15 731.85 -15.9 732.65C-15.6 733.4 -15.2 734 -14.95 734C-14.75 734 -14 734.5 -13.35 735.15C-8.45 739.65 -1.2 743.25 5.5 744.6C7.3 744.95 8.9 745.45 9.1 745.75C9.35 746.1 21.5 746.25 46.1 746.3C71.8 746.35 83.35 746.5 84.75 746.9C85.85 747.2 90.3 747.5 94.65 747.5C102.15 747.5 102.5 747.55 102.5 748.5C102.5 749.45 102.15 749.5 97.25 749.5C92.9 749.5 92 749.65 92 750.25C92 750.65 91.8 751 91.5 751C90.55 751 91 752.05 92.25 752.6C92.95 752.9 93.5 753.55 93.5 754.1C93.5 754.6 93.75 755 94 755C94.3 755 94.5 755.55 94.5 756.25C94.5 757.1 94.75 757.5 95.4 757.5C95.85 757.5 96.5 758 96.75 758.65C97.05 759.25 97.75 759.95 98.4 760.25C99 760.5 99.5 761.1 99.5 761.6C99.5 762.05 100.2 762.7 101 763.1C102.15 763.6 102.5 764.05 102.5 765.1C102.5 766.4 102.65 766.5 104.5 766.5C106.4 766.5 106.5 766.6 106.5 768C106.5 769.15 106.7 769.5 107.5 769.5C108.05 769.5 108.5 769.75 108.5 770C108.5 770.3 109.3 770.5 110.25 770.5C111.45 770.5 112.1 770.8 112.5 771.5C112.95 772.35 113.55 772.5 116.15 772.5C118.65 772.5 119.4 772.7 119.85 773.45C120.2 774.05 121.3 774.5 122.85 774.7C124.15 774.9 125.7 775.35 126.2 775.75C126.75 776.15 128.25 776.5 129.5 776.5C130.75 776.5 132.05 776.75 132.3 777C132.6 777.3 135.5 777.5 138.9 777.55C142.35 777.55 145 777.75 145 778.05C145 778.3 145.85 778.5 146.9 778.5C149.5 778.5 151 779 151 779.8C151 780.4 204.15 780.5 506.5 780.5C861.65 780.5 862 780.5 862 779.5C862 778.45 862.95 778.35 871.65 778.25C872.65 778.25 873.5 778.1 873.5 777.9C873.5 777.65 874.85 777.5 876.45 777.5C878.1 777.5 879.6 777.3 879.75 777C879.9 776.75 881.65 776.5 883.55 776.5C885.95 776.5 887.3 776.25 887.8 775.8C888.2 775.4 889.6 774.9 890.9 774.75C892.2 774.55 893.5 774.05 893.8 773.65C894.2 773.25 895.75 772.85 897.9 772.65C900.75 772.4 901.45 772.2 901.65 771.45C901.85 770.75 902.35 770.5 903.7 770.5C904.7 770.5 905.5 770.3 905.5 770C905.5 769.75 905.95 769.5 906.5 769.5C907.3 769.5 907.5 769.15 907.5 768C907.5 766.75 907.7 766.5 908.75 766.5C909.45 766.5 910 766.3 910 766C910 765.75 910.35 765.5 910.75 765.5C911.15 765.5 911.5 765.05 911.5 764.5C911.5 763.9 911.85 763.5 912.3 763.5C913.25 763.5 914.5 762.3 914.5 761.4C914.5 761.05 915.2 760.45 916 760.1C916.95 759.65 917.5 759.05 917.5 758.4C917.5 757.85 917.9 757.3 918.5 757.15C919.05 757 919.5 756.7 919.5 756.4C919.5 755.8 921.6 752.85 922.4 752.35C922.7 752.15 923 751.55 923 751C923 750.5 923.3 749.95 923.6 749.85C923.95 749.7 920.8 749.55 916.65 749.55C909.35 749.5 909 749.45 909 748.5C909 747.55 909.6 747.5 965.9 747.4L1022.75 747.25L1027.5 745.65C1033.6 743.55 1039.15 740.3 1043.5 736.2L1046.95 732.95L1049.85 735.05C1062.85 744.65 1084.35 755.6 1101.9 761.5L1107 763.25V786.1V809H507H-93L-93 359ZM81.25 747.5C81.8 747.35 64.8 747.15 43.5 747C22.2 746.85 4.3 746.55 3.75 746.35L2.75 745.95L3.75 746.4C6.95 747.85 8.7 747.95 44 747.85C63.95 747.8 80.7 747.65 81.25 747.5ZM-17.45 733.85L-19.15 732.25L-17.7 734.1C-16.95 735.1 -16.2 735.85 -16.05 735.7C-15.9 735.6 -16.55 734.75 -17.45 733.85ZM-24.85 720.4C-25 719.65 -25.3 719.15 -25.55 719.25C-25.75 719.4 -25.7 720.1 -25.4 720.75C-24.7 722.3 -24.5 722.15 -24.85 720.4ZM-26.65 184.65C-26.7 87.9 -26.75 167.05 -26.75 360.5C-26.75 553.95 -26.7 633.1 -26.65 536.4C-26.55 439.65 -26.55 281.35 -26.65 184.65ZM64.6 -29.35C54.05 -29.45 36.95 -29.45 26.6 -29.35C16.25 -29.3 24.85 -29.25 45.75 -29.25C66.65 -29.25 75.15 -29.3 64.6 -29.35Z" fill="#C3E8EF"/>
<path d="M4.5 21C4.5 19.95 5 19.8 6.9 20.3C8.7 20.8 8.25 22 6.25 22C4.85 22 4.5 21.8 4.5 21Z" fill="#D4D0E6"/>
<path d="M15.5 21.25C15.5 20.85 15.85 20.5 16.25 20.5C17.35 20.5 17.2 19.6 15.5 16.5C13.7 13.15 13.7 13 15.15 13C16.5 13 17.5 14.7 17.5 17C17.5 18 17.75 18.5 18.25 18.5C18.75 18.5 19 19.05 19 20.25C19 21.9 18.9 22 17.25 22C16.05 22 15.5 21.75 15.5 21.25Z" fill="#D4D0E6"/>
<path d="M0.5 17.25C0.5 15.05 0.950001 15.05 2.4 17.25L3.5 19H2C0.6 19 0.5 18.85 0.5 17.25Z" fill="#D4D0E6"/>
<path d="M0 11.65C0 9 0.549999 8 1.85 8C2.65 8 3 8.2 2.8 8.65C2.7 8.95 2.3 10.1 1.95 11.15C1.25 13.35 0 13.65 0 11.65Z" fill="#D4D0E6"/>
<path d="M11.1 8.25L10 6.5H11.5C12.9 6.5 13 6.65 13 8.25C13 10.45 12.55 10.45 11.1 8.25Z" fill="#D4D0E6"/>
<path d="M4 5.8C4 4.65 4.2 4.5 5.75 4.5C7.6 4.5 8.25 5.65 6.65 6.15C6.15 6.25 5.35 6.55 4.9 6.75C4.15 7.05 4 6.85 4 5.8Z" fill="#D4D0E6"/>
<path d="M-2.5 15.65V13.8L-0.75 15.5C0.2 16.45 1 17.25 1 17.35C1 17.45 0.2 17.5 -0.75 17.5C-2.45 17.5 -2.5 17.45 -2.5 15.65Z" fill="#C4BDD5"/>
<path d="M9 8.5C7.85 6.25 6.49999 4.2 5.94999 3.85C4.54999 2.95 4.8 2.5 6.75 2.5C7.95 2.5 8.5 2.75 8.5 3.25C8.5 3.65 8.75 4 9 4C9.3 4 9.5 4.45 9.5 5C9.5 5.55 9.7 6 9.9 6C10.15 6 10.7 6.8 11.15 7.75C12.05 9.65 12.3 12.5 11.55 12.5C11.3 12.5 10.15 10.7 9 8.5Z" fill="#C4BDD5"/>
<path d="M-4 7.75C-4 6.8 -3.75 6 -3.5 6C-3.2 6 -3 5.55 -3 5C-3 4.35 -2.65 4 -2 4C-1.35 4 -1 3.65 -1 3C-1 2.2 -0.65 2 0.75 2C2.8 2 3 2.55 1.2 3.5C-0.350003 4.35 -1.8 6.3 -2.25 8.15C-2.75 10.15 -4 9.85 -4 7.75Z" fill="#C4BDD5"/>
<path d="M3.99997 21.5C3.99997 21.25 3.64997 21 3.19997 21C2.79997 21 2.09997 20.7 1.69997 20.3C0.899966 19.5 0.749969 16.5 1.49997 16.5C1.79997 16.5 1.99997 16.7 1.99997 16.95C1.99997 17.8 4.59997 19.95 6.04997 20.25C8.14997 20.7 7.94997 22 5.74997 22C4.79997 22 3.99997 21.8 3.99997 21.5Z" fill="#A49EDB"/>
<path d="M15.5 21C15.5 20.75 15.95 20.5 16.5 20.5C17.45 20.5 17.45 20.5 16.5 18.2C15.25 15.4 15.25 15.5 16.65 15.5C17.9 15.5 19 17.65 19 20.15C19 21.35 18.8 21.5 17.25 21.5C16.3 21.5 15.5 21.3 15.5 21Z" fill="#A49EDB"/>
<path d="M19.7 14.9C18.35 12.35 16.95 9.59998 16.5 8.74998C16.1 7.94998 15.5 6.94998 15.2 6.64998C14.25 5.64998 13 5.84998 13 6.99998C13 7.54998 13.25 7.99998 13.5 7.99998C13.8 7.99998 14 8.79998 14 9.74998C14 12.1 13.4 11.95 12 9.24998C11.2 7.64998 10.35 6.84998 9.15 6.39998C6.6 5.44998 6.95 4.29998 9.75 4.59998C11.85 4.84998 12 4.79998 12 3.69998C12 2.39998 12.9 2.24998 16.65 2.89998C18.3 3.19998 18.8 3.59998 19.85 5.49998C23.25 11.5 25.5 16.45 25.5 17.9C25.5 19.4 25.4 19.5 23.8 19.5C22.15 19.5 22 19.35 19.7 14.9Z" fill="#A49EDB"/>
<path d="M2.5 20C2.5 18.75 2.3 18.5 1.3 18.5C0.350003 18.5 0.100003 18.2 -0.199997 16.65C-0.349997 15.6 -0.5 13.9 -0.5 12.9C-0.5 11.35 -0.3 11 0.5 11C1.35 11 1.5 11.35 1.5 13.5C1.5 16.6 2.55 18.75 4.5 19.75C6.5 20.8 6.4 21.5 4.25 21.5C2.65 21.5 2.5 21.4 2.5 20Z" fill="#8880CF"/>
<path d="M14.5 13.9C10.85 6.65 10.1 5.85 7.15 6.1C5.2 6.25 5 6.15 5 5.15C5 4.1 5.25 4 7.25 4C8.5 4 9.5 3.8 9.5 3.6C9.5 2.8 12.05 2 14.7 2C17.95 2 19.1 2.95 21.25 7.6C22.1 9.3 22.85 10.85 23.05 11C24 11.85 26 16.75 26 18.25V20H21.8H17.55L14.5 13.9ZM21.45 12.7C19.7 9.3 17.95 6.6 18.55 8.25C19.2 9.9 23.1 17.05 23.25 16.9C23.4 16.8 22.55 14.9 21.45 12.7Z" fill="#8880CF"/>
<path d="M41 746.5C4.84999 746.2 3.64999 746.2 0.749994 745.15C-6.05001 742.8 -10 740.5 -14.4 736.35C-19.2 731.8 -22.05 727.25 -24.7 719.75L-25.75 716.75L-25.9 361.75C-26 122.75 -25.85 5.49999 -25.5 2.84999C-23.8 -10.35 -13.55 -22.4 -0.150007 -26.9L3.74999 -28.25L44.75 -28.5C67.3 -28.65 85.8 -28.75 85.9 -28.7C85.95 -28.7 83.95 -28.15 81.4 -27.55C71.35 -25.05 62.25 -18.75 56.6 -10.25C53.95 -6.2 52.85 -4.05001 51.2 0.999994L49.75 5.25L49.6 84.65L49.5 164H35.85H22.25L19.25 165.45C15.6 167.2 13.5 169.35 11.8 173L10.5 175.75L10.55 191.25C10.55 203 10.7 207.2 11.2 208.65C12.85 213.25 16.65 216.75 21.45 218.2C23.65 218.85 26.65 219 36.85 219H49.5V464.9C49.5 710.1 49.5 710.75 50.5 715C54 729.45 64.3 740.65 78.7 745.55C82.6 746.9 82.65 746.95 80.5 746.85C79.25 746.8 61.5 746.65 41 746.5ZM19.75 404.25V398.25L12.75 398.1C8.89999 398.05 5.54999 397.75 5.34999 397.55C4.74999 396.95 6.69999 396.6 12.9 396.2C16.75 395.95 18.15 395.7 18.35 395.15C18.9 393.75 17.75 393.4 14.7 394C13.05 394.3 9.95 394.85 7.8 395.25C5.59999 395.65 3.65 396.25 3.4 396.6C2.95 397.35 2.85 408.55 3.3 409.7C3.6 410.4 4.64999 410.5 11.7 410.4L19.75 410.25V404.25ZM20 332.05C20 326.85 19.85 325.4 19.2 324.8C18.6 324.15 17.15 324 11.65 324C2.89999 324 2.99999 323.95 2.99999 330.35C2.99999 336.9 3.09999 337 11.2 337C16.1 337 17.5 337.15 18 337.75C18.35 338.15 18.95 338.5 19.3 338.5C19.85 338.5 20 337.2 20 332.05ZM14.75 268.55C16.6 267.5 18.5 264.75 18.5 263.2C18.5 262.05 18.35 262 14.75 262H11V258.25C11 254.75 10.9 254.5 9.94999 254.5C8.29999 254.5 5.64999 255.95 4.74999 257.35C2.54999 260.7 2.7 263.9 5.3 266.9C7.85 269.95 11.25 270.5 14.75 268.55ZM19.7 258.6C19.55 255.7 17.25 253.25 14.25 252.9L12.75 252.75L12.6 255.95C12.5 257.7 12.55 259.45 12.7 259.8C12.85 260.2 14 260.4 16.35 260.35L19.75 260.25L19.7 258.6ZM17.25 19.35C16.95 18.25 17 18.25 20.7 18.4C22.8 18.5 24.5 18.45 24.5 18.3C24.5 17.55 17.95 5.65 17 4.65C15.3 2.85 12.2 3.35 10.6 5.55C10.1 6.3 9.74999 6.35 8.74999 5.9C5.14999 4.3 0.399998 10.15 1.3 15.05C1.75 17.15 3.29999 19.45 4.69999 20C5.24999 20.25 8.39999 20.45 11.65 20.45C17.5 20.5 17.5 20.5 17.25 19.35Z" fill="none"/>
</g>
<defs>
<clipPath id="clip0_5_1424">
<rect width="1200" height="900" fill="none" transform="translate(-93 -91)"/>
</clipPath>
</defs>
</svg>
