<svg width="24" height="21" viewBox="0 0 24 21" fill="none" xmlns="http://www.w3.org/2000/svg">
<g clip-path="url(#clip0_2_647)">
<path d="M6.00422 235.428C6.00422 -14.8723 5.75422 5.17767 9.10422 -1.07233C12.0042 -6.52233 18.5542 -11.3223 24.6542 -12.5223C28.4542 -13.2223 219.204 -13.1223 222.604 -12.4223C231.454 -10.5223 238.854 -2.92233 240.504 5.97767C240.804 7.67767 241.004 30.9277 241.004 68.8277V129.028H220.954C198.904 129.028 198.854 129.028 196.254 132.128C194.604 134.078 194.204 136.028 193.704 143.878C193.354 148.978 193.404 150.578 193.854 150.728C194.204 150.878 194.654 151.628 194.804 152.378C195.204 153.878 196.104 155.028 196.954 155.028C197.204 155.028 197.654 155.328 197.854 155.678C198.404 156.478 202.504 158.528 203.654 158.528C204.104 158.528 204.504 158.328 204.504 158.028C204.504 157.428 239.454 157.328 240.404 157.928C240.904 158.278 241.004 188.878 240.904 309.328L240.754 460.278L238.904 460.428C237.454 460.528 237.004 460.428 237.004 459.828C237.004 457.928 233.204 452.328 230.254 449.878C224.854 445.328 219.104 443.778 210.204 444.328L204.504 444.678V442.828C204.504 441.078 204.554 441.028 206.254 441.028C207.204 441.028 208.004 440.828 208.004 440.528C208.004 440.278 208.354 440.028 208.804 440.028C210.604 440.028 216.004 432.928 216.004 430.678C216.004 430.228 215.204 430.028 213.754 430.028C211.504 430.028 211.504 430.028 211.504 428.278C211.504 426.678 211.604 426.528 213.004 426.528C213.854 426.528 214.504 426.328 214.504 426.028C214.504 425.778 215.054 425.528 215.754 425.528C216.604 425.528 217.154 425.178 217.454 424.378C217.704 423.728 218.254 422.928 218.704 422.578C219.154 422.228 219.504 421.628 219.504 421.278C219.504 420.878 219.804 420.528 220.154 420.428C220.604 420.228 220.754 409.128 220.754 366.978C220.754 309.478 220.904 312.378 218.104 308.678C217.454 307.778 215.704 306.478 214.254 305.778L211.554 304.528H123.554C38.9542 304.528 35.5042 304.578 33.4042 305.478C32.2042 305.978 30.4042 307.228 29.4042 308.328C25.8042 312.028 25.9542 308.928 26.1042 367.078L26.2542 419.278L27.4042 421.378C28.0542 422.528 28.9042 423.728 29.3042 424.078C30.1542 424.778 30.3042 431.028 29.4542 431.028C29.1042 431.028 29.0042 431.578 29.2542 432.678C29.9542 436.228 30.1042 438.528 29.5542 438.528C29.2042 438.528 29.0042 439.678 29.0042 441.528C29.0042 443.878 28.8542 444.528 28.2542 444.528C26.8542 444.528 21.6042 446.478 19.6542 447.778C16.4042 449.878 15.5042 450.678 13.5542 453.278C11.1542 456.478 10.1542 458.328 9.75422 460.678C9.40422 462.378 9.25423 462.528 7.70423 462.528H6.00422V235.428ZM120.004 246.528C120.004 245.628 120.354 245.528 123.004 245.528C125.654 245.528 126.004 245.628 126.004 246.528C126.004 247.278 126.354 247.528 127.254 247.528C128.254 247.528 128.504 247.278 128.504 246.328C128.504 245.178 128.754 245.078 131.754 244.778C133.554 244.578 135.004 244.228 135.004 243.978C135.004 243.728 135.804 243.528 136.754 243.528C137.704 243.528 138.504 243.328 138.504 243.078C138.504 242.828 139.654 242.328 141.004 241.978C142.404 241.628 143.504 241.178 143.504 240.928C143.504 240.728 143.954 240.528 144.504 240.528C145.054 240.528 145.504 240.328 145.504 240.128C145.504 239.578 147.754 238.528 148.904 238.528C149.404 238.528 150.004 238.028 150.254 237.428C150.604 236.628 151.254 236.228 152.404 236.128C153.504 236.028 154.004 235.728 154.004 235.178C154.004 234.028 156.004 232.028 157.104 232.028C157.604 232.028 158.004 231.678 158.004 231.228C158.004 230.778 158.454 230.328 159.004 230.178C159.554 230.028 160.004 229.528 160.004 229.078C160.004 227.778 161.054 227.028 162.804 227.028C164.804 227.028 165.204 226.428 165.054 223.678C165.004 222.028 165.154 221.528 165.754 221.528C166.154 221.528 166.504 221.078 166.504 220.528C166.504 219.078 167.554 217.028 168.354 217.028C168.754 217.028 169.004 216.478 169.004 215.578C169.004 214.778 169.154 214.028 169.404 213.928C169.604 213.878 170.304 211.578 170.954 208.928C172.004 204.528 172.254 204.028 173.254 204.028C174.104 204.028 174.454 203.678 174.704 202.478C175.254 199.778 175.104 199.028 174.004 199.028C173.104 199.028 173.004 198.678 173.004 196.028C173.004 193.378 173.104 193.028 174.004 193.028C174.804 193.028 175.004 192.678 175.004 191.528C175.004 190.278 174.804 190.028 173.854 190.028C172.904 190.028 172.654 189.628 172.104 187.178C170.804 181.278 167.304 172.328 165.654 170.628C165.304 170.278 165.004 169.778 165.004 169.528C165.004 169.278 164.454 168.528 163.754 167.828C163.054 167.128 162.504 166.128 162.504 165.528C162.504 164.978 162.254 164.528 161.904 164.528C160.854 164.528 159.004 162.378 159.004 161.178C159.004 160.328 158.704 160.028 157.854 160.028C157.204 160.028 156.054 159.378 155.254 158.528C151.904 155.028 140.154 148.378 133.754 146.428C127.204 144.378 115.254 145.478 106.154 148.978C89.3042 155.528 76.8042 170.728 73.8042 188.478C72.7542 194.678 72.8042 198.428 73.9542 204.428C75.0542 210.028 77.0042 215.378 79.7042 220.228C81.5542 223.528 81.5542 223.528 83.7542 223.528C85.6542 223.528 86.0042 223.678 86.0042 224.528C86.0042 225.278 86.3542 225.528 87.2542 225.528C88.4542 225.528 88.5042 225.678 88.5042 228.478C88.5042 230.878 88.3542 231.478 87.6542 231.678C87.1542 231.828 87.6542 231.928 88.7542 231.978C90.7042 232.028 92.5042 233.278 92.5042 234.528C92.5042 234.828 92.9542 235.028 93.5042 235.028C94.0042 235.028 94.6542 235.328 94.8542 235.678C95.0542 236.078 95.6542 236.478 96.1542 236.678C96.6042 236.828 97.0042 237.328 97.0042 237.778C97.0042 238.178 97.4542 238.528 98.0042 238.528C98.5542 238.528 100.554 239.278 102.404 240.228C104.254 241.128 106.604 242.178 107.654 242.478C108.654 242.828 109.504 243.328 109.504 243.578C109.504 243.828 110.004 244.028 110.554 244.028C111.154 244.028 113.054 244.278 114.804 244.628C117.654 245.128 118.004 245.328 118.004 246.378C118.004 247.178 118.304 247.528 119.004 247.528C119.654 247.528 120.004 247.178 120.004 246.528ZM85.0042 228.778C85.0042 226.928 84.5542 226.678 82.9542 227.528C81.7042 228.228 81.7542 229.228 83.1542 229.928C84.8542 230.728 85.0042 230.678 85.0042 228.778ZM165.654 85.4777C166.654 85.2277 167.504 84.7777 167.504 84.5277C167.504 84.2277 168.304 84.0277 169.254 84.0277C170.204 84.0277 171.004 83.8777 171.004 83.6277C171.004 83.4277 171.504 83.0277 172.104 82.7777C173.354 82.2277 174.704 79.9777 176.104 76.2777C177.054 73.6277 177.354 67.1777 176.554 65.6277C176.304 65.1777 175.804 63.8277 175.454 62.6277C175.104 61.4777 174.554 60.2777 174.154 59.9777C173.804 59.6777 173.504 59.0277 173.504 58.5777C173.454 57.3777 171.504 55.3777 169.354 54.3777C167.554 53.5277 165.154 53.4777 123.354 53.8277C75.8542 54.1777 78.0542 54.0277 75.3542 56.8777C73.6042 58.7277 73.0042 60.8777 73.0042 65.1277V68.5277H71.5542C70.0042 68.5277 69.4042 69.3277 69.8542 70.9777C70.0542 71.7777 70.5042 72.0277 71.8042 72.0277C73.1042 72.0277 73.5042 72.2277 73.5042 72.9277C73.5042 74.4777 75.9042 77.4277 77.9542 78.3777C79.7542 79.1777 80.0042 79.4777 80.0042 80.9777V82.6777L77.9042 82.3777C76.7042 82.2777 75.3042 81.9777 74.7542 81.7777C74.1042 81.5277 74.3042 81.9277 75.4542 82.9777C76.3542 83.8277 77.9542 84.6277 78.9542 84.8277C79.9542 85.0277 81.1042 85.3277 81.5042 85.5777C82.6542 86.2277 163.354 86.1277 165.654 85.4777ZM216.754 31.2777C222.254 28.0777 222.404 17.7777 217.004 14.1777C215.604 13.1777 214.704 13.0277 211.054 13.0277C206.654 13.0277 205.454 13.4277 203.304 15.6277C201.054 17.9277 200.354 23.8277 201.954 27.2777C203.654 30.9277 206.354 32.4777 211.204 32.5277C214.004 32.5277 215.054 32.2777 216.754 31.2777ZM38.0042 27.5277C38.0042 26.6777 38.3542 26.5277 40.5542 26.5277H43.0542L40.9042 22.4277C39.7542 20.1277 38.3542 17.8777 37.8542 17.3777C37.0542 16.5777 36.8042 16.5277 35.8542 17.1777C35.2542 17.5777 33.7042 17.9777 32.4042 18.1277C29.5042 18.4777 28.6542 19.1277 27.4042 21.8777C26.3542 24.2277 26.7042 25.7277 28.5542 27.4777C29.5042 28.3777 30.3042 28.5277 33.8542 28.5277C37.6542 28.5277 38.0042 28.4277 38.0042 27.5277ZM184.654 25.5277C185.704 25.5277 185.754 25.3277 185.604 22.5777C185.454 19.8777 185.304 19.6277 184.154 19.3777C182.604 19.0777 181.004 20.5277 181.004 22.1777C181.004 22.7777 180.854 23.7777 180.704 24.4277C180.454 25.3777 180.604 25.5277 181.704 25.5277C182.604 25.5277 183.004 25.8277 183.054 26.4277C183.104 27.2277 183.154 27.2277 183.354 26.4277C183.454 25.9277 184.054 25.5277 184.654 25.5277Z" fill="#F7F8FF"/>
<path d="M14.4 16.65C13.05 16.3 13.3 15 14.7 15C15.7 15 16.5 15.8 16.5 16.8C16.5 17.05 15.6 17 14.4 16.65Z" fill="#FBFAF9"/>
<path d="M15.4 16.6C14.35 16.4 14.2 15 15.2 15C15.6 15 16.05 15.35 16.2 15.8C16.6 16.8 16.5 16.85 15.4 16.6Z" fill="#EEEFFC"/>
<path d="M3.35002 15.2C1.10002 12.95 0.950013 8.94998 3.00001 5.59998C4.10001 3.79998 5.70001 2.99998 8.15001 2.99998C9.05001 2.99998 10.2 2.64999 10.7 2.24999C11.9 1.34999 14.5 1.29998 15.65 2.09998C16.25 2.59998 22.5 13.7 22.5 14.35C22.5 14.45 21.95 14.5 21.3 14.5C20.25 14.5 19.65 13.7 17.2 9.19998C15.65 6.29998 14.05 3.79999 13.65 3.64999C13.3 3.49999 12.55 3.74998 12.05 4.19998C11.5 4.69998 10.3 4.99998 8.90001 4.99998C7.30001 4.99998 6.40001 5.29999 5.75001 5.99999C5.25001 6.54999 4.50002 6.99999 4.10002 6.99999C3.55002 6.99999 3.40002 7.59998 3.60002 9.94998C3.80002 12.95 4.70003 14.5 6.20003 14.5C6.65003 14.5 7.00001 14.9 7.00001 15.5C7.00001 16.95 4.95002 16.8 3.35002 15.2Z" fill="#EEEFFC"/>
<path d="M4.75004 16C4.15004 15.8 3.40003 15.25 3.05003 14.8C2.45003 14.1 2.60005 14 4.20005 14C5.80005 14 6.00004 14.15 6.00004 15.25C6.00004 15.95 5.95004 16.5 5.90004 16.45C5.80004 16.45 5.30004 16.25 4.75004 16Z" fill="#DED9E6"/>
<path d="M14.5 14.5V12.5H16.55C18.3 12.5 18.55 12.4 18.2 11.65C17.6 10.2 17.35 7 17.9 7C18.3 7 22 13.45 22 14.2C22 14.35 20.6 14.5 18.95 14.5C16.15 14.5 15.9 14.6 16.15 15.5C16.35 16.25 16.15 16.5 15.45 16.5C14.65 16.5 14.5 16.15 14.5 14.5Z" fill="#DED9E6"/>
<path d="M2 8.00001C2 6.70001 4.95 3.6 6.25 3.45C8.25 3.3 9 3.50001 9 4.25001C9 4.75001 8.2 5.05001 6.5 5.30001C4.05 5.60001 4 5.65001 4 7.30001C4 8.65001 3.8 9.00001 3 9.00001C2.35 9.00001 2 8.65001 2 8.00001Z" fill="#DED9E6"/>
<path d="M14.1 4.4C13.75 4.05 12.55 3.85 11.35 3.9L9.25 4.05L10.65 2.75C11.4 2.05 12.6 1.5 13.3 1.5C14.55 1.5 17 3.5 17 4.5C17 5.2 14.85 5.15 14.1 4.4Z" fill="#DED9E6"/>
<path d="M-293 231V-69H107H507V104.7V278.4L503.3 281.7C499.45 285.15 491.5 293.95 487.2 299.5C464.45 329 452.95 367.7 456 404.25C458.95 438.9 472.35 469.7 495.65 495.3C498.6 498.6 502.4 502.4 504 503.75L506.95 506.25V518.65L507 531H107H-293L-293 231ZM145.5 496.6C153.85 496.05 158.8 495.45 162.65 494.45C163.8 494.15 165.55 493.75 166.5 493.55C169.45 492.85 177.1 489.6 178.75 488.35C179.05 488.15 180.4 487.15 181.75 486.15C183.15 485.15 184.45 484 184.65 483.65C184.85 483.3 185.4 483 185.8 483C186.2 483 186.75 482.45 187 481.8C187.25 481.1 187.9 480.3 188.5 480C189.05 479.7 189.5 479.1 189.5 478.7C189.5 477.35 190.85 476.5 193 476.5C195.4 476.5 200.4 474.9 203.35 473.2C206.85 471.2 210.3 467.35 212.35 463.15L214.25 459.3L214.45 451.8C214.65 444.8 214.7 444.4 215.3 446.25C215.8 447.9 215.95 420.05 215.95 297.65C216 177.5 216.15 147 216.65 146.95C216.95 146.9 217.6 146.8 218 146.75C219.75 146.6 223.5 145.35 223.5 144.95C223.5 144.7 222.95 144.75 222.25 145C221.1 145.45 217.95 145.7 215.9 145.55C215.4 145.55 215 145.15 215 144.75C215 144.2 215.55 144 216.95 144C221.35 144 225 140.95 225.95 136.5C226.25 135.1 226.5 132.05 226.5 129.75C226.5 124 225.75 120.8 223.85 118.65C221.9 116.45 219.75 115.5 216.75 115.5C215.1 115.5 214.5 115.3 214.5 114.75C214.5 114.35 214.85 114 215.25 114C215.95 114 216 107.3 215.9 52.9L215.75 -8.25L214.1 -11.6C212 -15.95 207.85 -20.4 204.1 -22.4C197.95 -25.65 204.3 -25.5 100 -25.5C-4.29999 -25.5 2.04999 -25.65 -4.10001 -22.4C-7.85001 -20.4 -12 -15.95 -14.1 -11.6L-15.75 -8.25L-15.85 220C-15.9 404.3 -15.8 447.85 -15.3 446.25C-14.7 444.4 -14.65 444.85 -14.45 451.8L-14.25 459.3L-12.35 463.2C-8.75 470.45 -1.55002 475.65 5.79999 476.35C7.54999 476.5 9 476.85 9 477.05C9 477.3 9.35001 477.5 9.75 477.5C10.15 477.5 10.5 477.85 10.5 478.25C10.5 478.7 11.65 480.1 13 481.45C14.4 482.8 15.5 484.15 15.5 484.45C15.5 484.75 15.8 485 16.2 485C16.6 485 17 485.35 17.2 485.75C17.35 486.15 17.95 486.5 18.5 486.5C19.05 486.5 19.5 486.7 19.5 486.95C19.5 487.2 19.95 487.6 20.5 487.75C21.05 487.9 21.8 488.35 22.1 488.7C22.95 489.5 29.25 492.5 30.1 492.5C30.5 492.5 31.25 492.8 31.8 493.2C32.35 493.6 34.05 494.05 35.65 494.25C37.2 494.45 38.5 494.8 38.5 495.05C38.5 495.3 39.7 495.5 41.2 495.5C42.7 495.5 44 495.75 44.1 496.05C44.2 496.4 47.4 496.6 53.8 496.6C59.05 496.6 63.65 496.8 64.05 497.05C65 497.65 134.95 497.3 145.5 496.6Z" fill="#C3E8EF"/>
<path d="M4.40002 15.7C2.05002 14.45 1.10003 11.5 3.00003 11.5C3.75003 11.5 4.10003 11.95 4.35003 13C4.55003 14.25 4.85001 14.5 6.05001 14.5C7.15001 14.5 7.50003 14.75 7.50003 15.5C7.50003 16.7 6.35002 16.8 4.40002 15.7Z" fill="#D1CFEF"/>
<path d="M11.75 11.45C10.4 8.7 8.84999 6.2 8.39999 5.95C7.89999 5.7 7.5 5 7.5 4.5C7.5 3.9 7.84999 3.5 8.39999 3.5C8.84999 3.5 10.2 3 11.35 2.4L13.45 1.25L14.85 2.3C16.15 3.25 21.5 12.5 21.5 13.8C21.5 14.15 20.5 14.35 18.75 14.3C16.2 14.2 16 14.3 16 15.35C16 16.1 15.7 16.5 15.15 16.5C14.5 16.5 13.5 14.95 11.75 11.45Z" fill="#D1CFEF"/>
<path d="M2.35 7C2.65 5.95 5.19998 3.5 6.04998 3.5C6.29998 3.5 6.49999 4.05 6.49999 4.75C6.49999 5.65 6.24999 6 5.49999 6C4.84999 6 4.49999 6.35 4.49999 7C4.49999 7.7 4.14998 8 3.29998 8C2.34998 8 2.15 7.8 2.35 7Z" fill="#D1CFEF"/>
<path d="M3.50004 15C2.10004 13.6 2.25004 12.9 3.90004 13.1C4.95004 13.2 5.30004 13.55 5.40004 14.65C5.60004 16.25 4.90004 16.4 3.50004 15Z" fill="#BDB9D4"/>
<path d="M13.5 14.25C13.5 13.5 13.2 13 12.8 13C11.95 13 11.5 11.9 11.5 9.94998C11.5 7.79998 12.3 8.19999 13.85 11.15C16.1 15.45 16.15 15.5 14.75 15.5C13.75 15.5 13.5 15.25 13.5 14.25Z" fill="#BDB9D4"/>
<path d="M2 8.7C2 7.65 2.9 6 3.5 6C3.8 6 4 6.8 4 7.75C4 9.15 3.8 9.5 3 9.5C2.45 9.5 2 9.15 2 8.7Z" fill="#BDB9D4"/>
<path d="M9 6.24997C9 5.84997 8.55 5.49997 8 5.49997C7.35 5.49997 7 5.14997 7 4.49997C7 3.09997 8.55001 3.19997 10.2 4.74997C11.85 6.24997 11.85 6.99997 10.25 6.99997C9.45 6.99997 9 6.69997 9 6.24997Z" fill="#BDB9D4"/>
<path d="M5.20002 16C2.70002 15 0.950008 11 3.00001 11C3.75001 11 4.1 11.4 4.3 12.45C4.55 13.7 4.9 14 6.55 14.25C8 14.5 8.50001 14.8 8.50001 15.55C8.50001 16.6 7.10002 16.8 5.20002 16Z" fill="#A49EDB"/>
<path d="M13.25 15C12.85 14.2 12.5 13 12.5 12.25C12.5 11.55 12.2 11 11.9 11C11.55 11 10.65 9.84999 9.90004 8.49999C7.95004 4.94999 8.10006 2.69999 10.2001 4.74999C11.0001 5.59999 16 15.25 16 16.05C16 17.15 13.95 16.4 13.25 15Z" fill="#A49EDB"/>
<path d="M2 9.24999C2 8.79999 2.30001 7.74999 2.70001 6.84999C3.80001 4.14999 7.5 2.34999 7.5 4.49999C7.5 5.04999 7.19999 5.49999 6.89999 5.49999C6.19999 5.49999 4 8.44999 4 9.39999C4 9.74999 3.55 9.99999 3 9.99999C2.45 9.99999 2 9.64999 2 9.24999Z" fill="#A49EDB"/>
<path d="M5.59999 15.95C1.34999 14.7 0.799981 7.7 4.74998 4.6C6.54998 3.15 8.24998 3.19999 9.74998 4.69999C11.15 6.09999 16.1 15.75 15.65 16.2C15.15 16.65 7.44999 16.45 5.59999 15.95ZM12.5 14.15C12.5 13.65 8.94998 7.34999 8.14997 6.44999C6.64997 4.69999 3.99998 7.6 3.99998 10.9C3.99998 11.5 4.49997 12.5 5.14997 13.2C6.04997 14.2 6.74997 14.4 9.39997 14.45C11.1 14.5 12.5 14.35 12.5 14.15Z" fill="#7067C6"/>
<path d="M3.80195 14.595C3.01667 13.8423 2.23139 12.4875 2.07433 11.5843C1.65552 9.47675 3.06901 5.8137 4.74428 4.75994C6.41955 3.70618 8.82775 3.75636 9.87479 4.8603C10.6601 5.66316 16 15.1971 16 15.7491C16 15.8996 13.5918 16 10.6077 16C5.37251 16 5.16311 15.9498 3.80195 14.595Z" fill="#3326AE"/>
</g>
<defs>
<clipPath id="clip0_2_647">
<rect width="800" height="600" fill="white" transform="translate(-293 -69)"/>
</clipPath>
</defs>
</svg>
