<svg width="15" height="15" viewBox="0 0 15 15" fill="none" xmlns="http://www.w3.org/2000/svg">
<path d="M3.24998 14.5C3.09998 14.2 3.09996 13 3.29996 11.75C3.59996 9.70001 3.49996 9.35003 2.04996 7.90003C1.19996 7.00003 0.550001 6.05001 0.650001 5.75001C0.750001 5.50001 1.84995 5.04999 3.09995 4.84999C4.99995 4.49999 5.39999 4.20001 5.94999 2.75001C6.24999 1.85001 6.84998 0.85001 7.24998 0.50001C7.84998 9.95398e-06 8.14995 0.20001 8.84995 1.50001C10.4 4.30001 10.75 4.54999 12.9 4.84999C15.45 5.19999 15.6 6.05 13.45 8.05C12 9.4 11.9 9.70001 12.2 11.75C12.7 14.85 12.35 15.15 9.79996 13.95L7.69999 12.9L5.59995 13.95C4.34995 14.6 3.44998 14.8 3.24998 14.5Z" fill="#FF392B"/>
</svg>
