<svg width="15" height="15" viewBox="0 0 15 15" fill="none" xmlns="http://www.w3.org/2000/svg">
<path d="M5.74997 14.6501C4.14997 14.2501 2.04997 12.55 1.24997 11C0.199974 8.95003 0.299974 5.55006 1.49997 3.65005C2.59997 1.80005 5.79995 3.05176e-05 7.84995 3.05176e-05C11.6999 0.100031 15 3.55004 15 7.45004C15 12.4 10.55 15.8501 5.74997 14.6501ZM11.5 8.50003C11.5 8.25003 11.2 7.95004 10.9 7.95004C10.55 7.90004 9.89997 7.85002 9.49997 7.80002C8.99997 7.75002 8.64997 7.00001 8.49997 5.35001C8.34997 4.05001 8.04997 2.90001 7.74997 2.85001C7.19997 2.75001 6.74999 7.15002 7.19999 8.30002C7.49999 9.10002 11.5 9.30003 11.5 8.50003Z" fill="#00C3F8"/>
</svg>
