<svg width="44" height="36" viewBox="0 0 44 36" fill="none" xmlns="http://www.w3.org/2000/svg">
<path d="M2.61905 35.2572C0.57619 34.1143 0 32.2286 0 26.1714C0 20.9143 0.0523842 20.6286 1.36191 19.4857C2.14762 18.8 3.19524 18.2857 3.71905 18.2857C4.29524 18.2857 4.71429 17.9429 4.71429 17.6C4.71429 17.0857 4.92381 17.1429 5.2381 17.7143C5.65714 18.4 5.76191 18.3429 5.76191 17.3143C5.76191 16.5714 5.91904 16 6.18095 16C6.39047 16 6.96666 15.0286 7.49047 13.8857C8.01428 12.6857 8.80001 10.9714 9.27144 10C9.74286 9.08571 10.2667 7.88571 10.4762 7.42857C10.6857 6.97143 11.3143 6.34286 11.9429 6C12.6762 5.65714 12.9905 5.08571 12.8333 4.45714C12.4667 3.25714 14.5095 1.08572 15.6095 1.54286C16.0809 1.77144 16.2905 1.65714 16.081 1.31428C15.6095 0.457136 16.919 0 19.8 0C23.2048 0.0571429 25.7714 0.74285 27.2905 2.17142C35.4619 9.77142 36.7714 10.5714 40.7524 10.5143H44V21.4857V32.4571L42.3762 34.2286L40.7524 36H22.3667C8.64286 36 3.61429 35.8286 2.61905 35.2572Z" fill="#EDECF7"/>
</svg>
