<svg width="15" height="15" viewBox="0 0 15 15" fill="none" xmlns="http://www.w3.org/2000/svg">
<path d="M3.99999 13.9C-2.30001 10.65 -0.80001 1.55 6.24999 0.200004C8.34999 -0.199996 11.75 1.24997 13.1 3.09997C14.6 5.19997 14.8 8.79999 13.6 11C12.65 12.8 9.14999 15 7.24999 15C6.69999 15 5.19999 14.5 3.99999 13.9ZM7.99999 9.24999C9.09999 8.54999 9.99999 7.74999 9.99999 7.49999C9.99999 6.79999 6.04999 4.39999 5.49999 4.74999C4.94999 5.09999 4.79997 9.65002 5.34997 10.15C5.79997 10.65 5.79999 10.65 7.99999 9.24999Z" fill="#3326AE"/>
</svg>
